<?xml version="1.0" encoding="UTF-8"?>
<svg width="226px" height="130px" viewBox="0 0 226 130" version="1.1" xmlns="http://www.w3.org/2000/svg" xmlns:xlink="http://www.w3.org/1999/xlink">
    <!-- Generator: Sketch 59.1 (86144) - https://sketch.com -->
    <title>Logo</title>
    <desc>Created with Sketch.</desc>
    <g id="Page-1" stroke="none" stroke-width="1" fill="none" fill-rule="evenodd">
        <g id="Desktop-HD" transform="translate(-120.000000, -119.000000)" fill="#000000" fill-rule="nonzero">
            <g id="Logo" transform="translate(120.320000, 119.888000)">
                <path d="M25.536,4.544 C12.224,4.544 1.344,13.824 1.344,28.864 C1.344,42.368 10.368,50.752 24.96,50.752 C31.232,50.752 36.928,49.216 40.64,46.592 L41.728,33.856 L38.528,33.856 L38.287339,34.7371275 C35.7147872,43.8127943 31.7085538,47.36 26.56,47.36 C18.7795349,47.36 14.6877664,38.9822823 14.5936609,27.4792775 L14.592,27.072 C14.592,16.256 17.92,7.744 25.92,7.744 C31.872,7.744 35.264,11.904 36.864,19.52 L40,19.52 L39.808,8.32 C36.16,5.888 31.296,4.544 25.536,4.544 Z" id="Path"></path>
                <path d="M59.968,1.42108547e-14 L57.984,1.42108547e-14 L44.608,2.944 L44.608,4.864 L48.128,6.656 L48.128,45.12 C48.128,47.168 47.104,47.424 44.544,47.616 L44.544,50.112 L63.552,50.112 L63.552,47.616 L63.089875,47.5788281 C60.868,47.385 59.968,47.04 59.968,45.12 L59.968,1.42108547e-14 Z" id="Path"></path>
                <path d="M81.472,14.976 L81.8332753,14.9775494 C90.5763156,15.0531132 95.808,17.9044324 95.808,26.112 L95.808,26.112 L95.8087872,43.2357843 C95.8234286,44.7022857 96.0548571,45.952 97.536,45.952 C98.432,45.952 99.264,45.76 99.712,45.568 L99.712,45.568 L100.16,47.296 C98.048,49.408 95.296,50.752 91.712,50.752 C88,50.752 85.312,48.768 84.352,45.376 C82.496,48.064 79.424,50.56 74.688,50.56 C69.312,50.56 65.536,47.488 65.536,41.984 C65.536,36.416 69.44,34.112 73.984,32.512 L73.984,32.512 L84.16,28.928 L84.16,22.4 C84.16,19.456 83.328,17.472 80.832,17.472 C78.336,17.472 77.376,19.52 77.376,22.528 C77.376,24 77.632,25.472 77.952,27.008 L77.952,27.008 L70.848,27.968 C68.992,27.328 67.712,25.792 67.712,23.488 C67.712,17.664 73.728,14.976 81.472,14.976 L81.472,14.976 Z M84.16,31.68 L80.4498972,33.0963025 C78.3170873,33.927471 76.928,35.1762286 76.928,38.72 C76.928,41.984 78.144,44.416 81.344,44.416 C82.368,44.416 83.136,44.096 84.16,43.52 L84.16,43.52 L84.16,31.68 Z" id="Combined-Shape"></path>
                <path d="M116.736,27.264 C119.476966,25.238069 122.772699,24.987396 126.468248,24.9624562 L128.832,24.96 L128.832,16.064 C128.192,15.424 127.104,14.976 125.632,14.976 C121.6,14.976 119.36,17.344 116.736,24.832 L116.992,14.976 L114.816,14.976 L101.44,18.688 L101.44,20.48 L104.96,22.656 L104.96,45.12 C104.96,47.168 103.936,47.424 101.376,47.616 L101.376,50.112 L121.856,50.112 L121.856,47.616 L121.071623,47.517306 C117.99548,47.11556 116.736,46.7056 116.736,44.16 L116.736,27.264 Z" id="Path"></path>
                <path d="M146.176,14.976 L146.537275,14.9775494 C155.280316,15.0531132 160.512,17.9044324 160.512,26.112 L160.512,26.112 L160.512787,43.2357843 C160.527429,44.7022857 160.758857,45.952 162.24,45.952 C163.136,45.952 163.968,45.76 164.416,45.568 L164.416,45.568 L164.864,47.296 C162.752,49.408 160,50.752 156.416,50.752 C152.704,50.752 150.016,48.768 149.056,45.376 C147.2,48.064 144.128,50.56 139.392,50.56 C134.016,50.56 130.24,47.488 130.24,41.984 C130.24,36.416 134.144,34.112 138.688,32.512 L138.688,32.512 L148.864,28.928 L148.864,22.4 C148.864,19.456 148.032,17.472 145.536,17.472 C143.04,17.472 142.08,19.52 142.08,22.528 C142.08,24 142.336,25.472 142.656,27.008 L142.656,27.008 L135.552,27.968 C133.696,27.328 132.416,25.792 132.416,23.488 C132.416,17.664 138.432,14.976 146.176,14.976 L146.176,14.976 Z M148.864,31.68 L145.153897,33.0963025 C143.021087,33.927471 141.632,35.1762286 141.632,38.72 C141.632,41.984 142.848,44.416 146.048,44.416 C147.072,44.416 147.84,44.096 148.864,43.52 L148.864,43.52 L148.864,31.68 Z" id="Combined-Shape"></path>
                <path d="M28.224,69.056 L44.16,109.056 C44.7466667,110.581333 45.8711111,111.084889 47.484037,111.355407 L47.484037,111.355407 L47.936,111.424 L47.936,114.112 L25.344,114.112 L25.344,111.424 C28.544,111.296 30.336,110.656 30.336,108.48 C30.336,107.84 30.144,107.072 29.824,106.112 L29.824,106.112 L27.52,100.224 L11.2,100.224 L9.024,106.048 C8.704,107.008 8.512,107.776 8.512,108.416 C8.512,110.403765 10.0993772,111.144304 13.1674171,111.38462 L13.1674171,111.38462 L13.76,111.424 L13.76,114.112 L2.84217094e-14,114.112 L2.84217094e-14,111.424 C1.728,111.168 3.008,110.784 3.712,109.056 L3.712,109.056 L17.024,74.368 L14.848,69.056 L28.224,69.056 Z M19.136,79.04 L12.48,96.768 L26.112,96.768 L19.136,79.04 Z" id="Combined-Shape"></path>
                <path d="M64.832,64 L62.848,64 L49.472,66.944 L49.472,68.864 L52.992,70.656 L52.992,109.12 C52.992,111.168 51.968,111.424 49.408,111.616 L49.408,114.112 L68.416,114.112 L68.416,111.616 L67.953875,111.578828 C65.732,111.385 64.832,111.04 64.832,109.12 L64.832,64 Z" id="Path"></path>
                <path d="M87.808,78.976 C97.088,78.976 101.824,84.864 101.824,92.992 L101.824,92.992 L101.824,94.592 L81.408,94.592 C81.28,102.208 85.504,106.944 91.328,106.944 C95.424,106.944 98.432,105.472 100.864,102.272 L100.864,102.272 L102.08,103.04 C100.352,110.08 95.424,114.752 87.36,114.752 C77.888,114.752 70.72,108.416 70.72,97.664 C70.72,86.272 78.592,78.976 87.808,78.976 Z M87.04,81.664 C83.52,81.664 81.792,85.696 81.472,91.648 L81.472,91.648 L91.712,91.648 C91.712,85.44 90.496,81.664 87.04,81.664 Z" id="Combined-Shape"></path>
                <path d="M120.064,78.976 C122.624,78.976 124.48,79.36 126.144,79.872 L126.144,79.872 L137.536,79.616 L137.536,83.904 L134.656,83.904 L130.752,83.776 C133.056,85.312 134.72,87.808 134.72,91.008 C134.72,98.112 128.192,102.08 119.616,102.08 C117.248,102.08 114.816,101.76 112.576,100.992 C111.552,101.888 110.72,102.912 110.72,104.192 C110.72,105.28 111.424,106.048 112.64,106.048 L112.64,106.048 L126.528,106.048 C135.168,106.048 138.816,109.76 138.816,115.584 C138.816,123.84 130.88,128.384 119.296,128.384 L119.296,128.384 L118.858775,128.382267 C109.00352,128.303748 102.912,125.558725 102.912,120.576 C102.912,117.376 105.984,115.84 108.8,115.392 C106.112,114.368 104.576,111.744 104.576,108.992 C104.576,104.832 107.52,102.144 110.848,100.352 C107.328,98.688 104.768,95.808 104.768,91.136 C104.768,83.456 111.232,78.976 120.064,78.976 Z M127.04,116.8 L110.144,116.8 C109.696,117.312 109.568,118.208 109.568,119.168 C109.568,123.072 113.6,125.376 119.616,125.376 C125.376,125.376 130.688,123.84 130.688,119.68 C130.688,117.632 129.408,116.8 127.04,116.8 L127.04,116.8 Z M119.552,81.664 C116.792,81.664 115.795333,84.5441111 115.717069,89.4594028 L115.717069,89.4594028 L115.712,90.112 C115.712,95.232 117.12,99.584 120.064,99.584 C122.826449,99.584 123.763552,96.6987755 123.835448,91.5495931 L123.835448,91.5495931 L123.84,90.88 C123.84,86.016 122.56,81.664 119.552,81.664 Z" id="Combined-Shape"></path>
                <path d="M155.456,91.264 C158.196966,89.238069 161.492699,88.987396 165.188248,88.9624562 L167.552,88.96 L167.552,80.064 C166.912,79.424 165.824,78.976 164.352,78.976 C160.32,78.976 158.08,81.344 155.456,88.832 L155.712,78.976 L153.536,78.976 L140.16,82.688 L140.16,84.48 L143.68,86.656 L143.68,109.12 C143.68,111.168 142.656,111.424 140.096,111.616 L140.096,114.112 L160.576,114.112 L160.576,111.616 L159.791623,111.517306 C156.71548,111.11556 155.456,110.7056 155.456,108.16 L155.456,91.264 Z" id="Path"></path>
                <polygon id="Path" points="178.624 65.152 175.424 75.648 178.752 75.648 190.08 65.728 190.08 65.152"></polygon>
                <path d="M184.704,78.976 L182.72,78.976 L169.408,82.688 L169.408,84.48 L172.928,86.656 L172.928,109.12 C172.928,111.168 171.904,111.424 169.344,111.616 L169.344,114.112 L188.288,114.112 L188.288,111.616 L187.825875,111.578828 C185.604,111.385 184.704,111.04 184.704,109.12 L184.704,78.976 Z" id="Path"></path>
                <path d="M206.272,78.976 C215.232,78.976 220.608,81.792 220.608,90.112 L220.608,107.072 C220.608,108.608 220.8,109.952 222.336,109.952 C223.232,109.952 224.064,109.76 224.512,109.568 L224.96,111.296 C222.848,113.408 220.096,114.752 216.512,114.752 C212.8,114.752 210.112,112.768 209.152,109.376 C207.296,112.064 204.224,114.56 199.488,114.56 C194.112,114.56 190.336,111.488 190.336,105.984 C190.336,100.521057 194.094069,98.2001054 198.527498,96.6033351 L208.96,92.928 L208.96,86.4 C208.96,83.456 208.128,81.472 205.632,81.472 C203.136,81.472 202.176,83.52 202.176,86.528 C202.176,88 202.432,89.472 202.752,91.008 L195.648,91.968 C193.792,91.328 192.512,89.792 192.512,87.488 C192.512,81.7536 198.344316,79.0594499 205.915827,78.9779103 L206.272,78.976 Z M208.96,95.68 L205.249897,97.0963025 C203.117087,97.927471 201.728,99.1762286 201.728,102.72 C201.728,105.984 202.944,108.416 206.144,108.416 C207.168,108.416 207.936,108.096 208.96,107.52 L208.96,107.52 L208.96,95.68 Z" id="Combined-Shape"></path>
            </g>
        </g>
    </g>
</svg>