<?xml version="1.0" encoding="UTF-8"?>
<svg width="268px" height="62px" viewBox="0 0 268 62" version="1.1" xmlns="http://www.w3.org/2000/svg" xmlns:xlink="http://www.w3.org/1999/xlink">
    <!-- Generator: Sketch 59.1 (86144) - https://sketch.com -->
    <title>Group 5</title>
    <desc>Created with Sketch.</desc>
    <g id="Page-1" stroke="none" stroke-width="1" fill="none" fill-rule="evenodd">
        <g id="Desktop-HD-Copy-2" transform="translate(-1021.000000, -1785.000000)" fill-rule="nonzero">
            <g id="Group-5" transform="translate(1021.290000, 1785.507812)">
                <path d="M214.860391,29.3017578 L228.307656,0 L240.177773,0 L235.197305,29.21875 L235.197305,45.2392578 L214.860391,45.2392578 L214.860391,29.3017578 Z M242.169961,29.3017578 L255.617227,0 L267.487344,0 L262.506875,29.21875 L262.506875,45.2392578 L242.169961,45.2392578 L242.169961,29.3017578 Z" id="“" fill-opacity="0.393602491" fill="#CCCCCC" transform="translate(241.173867, 22.619629) rotate(-180.000000) translate(-241.173867, -22.619629) "></path>
                <path d="M18.357,38.9191875 L19.807,50.9251875 L19.8311808,51.1367269 C19.8502041,51.3341467 19.865,51.5590446 19.865,51.6211875 C19.865,53.0421875 19.169,53.3321875 17.139,53.4771875 L17.139,54.4921875 L26.564,54.4921875 L26.564,53.4771875 L26.1998491,53.4524767 C24.874344,53.3411891 24.34608,53.0178275 24.186,51.7371875 L22.388,37.2661875 C22.388,35.7291875 22.968,35.2361875 24.824,35.1491875 L24.824,34.1341875 L18.357,34.1341875 C18.299,34.8011875 18.125,35.2361875 17.893,35.8741875 L13.485,48.5471875 L8.758,35.9031875 L8.57469971,35.3901496 C8.43604082,34.9834732 8.33542857,34.6106161 8.294,34.1341875 L1.74,34.1341875 L1.74,35.1491875 C3.654,35.2361875 4.205,35.7291875 4.205,37.2661875 L2.407,51.7371875 C2.262,53.0711875 1.653,53.3901875 -3.41060513e-13,53.4771875 L-3.41060513e-13,54.4921875 L6.699,54.4921875 L6.699,53.4771875 L6.26768841,53.4435374 C4.49411224,53.2849885 3.944,52.9406875 3.944,51.6211875 L3.95769679,51.3746452 C3.96885714,51.2234732 3.98542857,51.0411875 4.002,50.9251875 L5.481,38.9191875 L11.339,54.4921875 L12.789,54.4921875 L18.357,38.9191875 Z M34.5293333,38.8321875 L33.8913333,38.8321875 L28.7873333,40.4271875 L28.7873333,40.9781875 L30.5273333,41.9931875 L30.5273333,52.2591875 C30.5273333,53.2741875 30.0633333,53.4481875 28.7003333,53.5351875 L28.7003333,54.4921875 L36.3563333,54.4921875 L36.3563333,53.5351875 L36.0065685,53.5087367 C34.9128044,53.4096007 34.5293333,53.1819148 34.5293333,52.2591875 L34.5293333,38.8321875 Z M32.4703333,37.0921875 C33.8913333,37.0921875 34.8483333,36.0191875 34.8483333,34.8011875 C34.8483333,33.5541875 33.8913333,32.5101875 32.4703333,32.5101875 C31.0783333,32.5101875 30.1213333,33.5541875 30.1213333,34.8011875 C30.1213333,36.0191875 31.0783333,37.0921875 32.4703333,37.0921875 Z M60.987,39.1221875 L55.97,39.1221875 L55.97,40.0791875 L56.5540583,40.162721 C57.601102,40.3265753 57.942,40.4934732 57.942,41.0651875 C57.942,41.2971875 57.884,41.4711875 57.739,41.8481875 L54.491,49.9101875 L51.011,41.8771875 L50.9257755,41.5919222 C50.8665918,41.3818202 50.837,41.2309018 50.837,41.0651875 C50.837,40.3981875 51.301,40.2531875 52.78,40.0791875 L52.78,39.1221875 L44.892,39.1221875 L44.892,40.0791875 C45.936,40.3691875 46.081,40.5721875 46.371,41.1811875 L52.693,54.6951875 L53.766,54.6951875 L59.508,41.1811875 C59.769,40.5721875 59.943,40.3691875 60.987,40.0791875 L60.987,39.1221875 Z M68.7783333,38.8321875 L68.1403333,38.8321875 L63.0363333,40.4271875 L63.0363333,40.9781875 L64.7763333,41.9931875 L64.7763333,52.2591875 C64.7763333,53.2741875 64.3123333,53.4481875 62.9493333,53.5351875 L62.9493333,54.4921875 L70.6053333,54.4921875 L70.6053333,53.5351875 L70.2555685,53.5087367 C69.1618044,53.4096007 68.7783333,53.1819148 68.7783333,52.2591875 L68.7783333,38.8321875 Z M66.7193333,37.0921875 C68.1403333,37.0921875 69.0973333,36.0191875 69.0973333,34.8011875 C69.0973333,33.5541875 68.1403333,32.5101875 66.7193333,32.5101875 C65.3273333,32.5101875 64.3703333,33.5541875 64.3703333,34.8011875 C64.3703333,36.0191875 65.3273333,37.0921875 66.7193333,37.0921875 Z M78.6286667,54.7821875 C82.1956667,54.7821875 84.5156667,52.9841875 84.5156667,49.8811875 C84.5156667,47.0391875 82.6886667,45.8501875 79.5276667,44.7481875 C77.2946667,43.9361875 76.3956667,43.2981875 76.3956667,41.9641875 C76.3956667,40.7171875 77.2656667,39.8471875 78.7446667,39.8471875 C80.8036667,39.8471875 82.0216667,41.5291875 82.4856667,43.6171875 L83.4716667,43.6171875 L83.4716667,40.1081875 C82.2536667,39.3251875 80.6296667,38.8321875 78.7446667,38.8321875 C75.5546667,38.8321875 73.3506667,40.5431875 73.3506667,43.4431875 C73.3506667,46.0584602 74.8504646,47.2830112 77.7707324,48.3332055 L78.0486667,48.4311875 C80.3396667,49.2431875 81.4126667,49.8521875 81.4126667,51.4181875 C81.4126667,53.0131875 80.2236667,53.7671875 78.6576667,53.7671875 C76.4246667,53.7671875 74.9456667,51.8821875 74.3076667,49.3591875 L73.2346667,49.3591875 L73.4086667,53.3321875 C74.5976667,54.2021875 76.4246667,54.7821875 78.6286667,54.7821875 Z M93.09,38.8321875 L92.452,38.8321875 L87.348,40.4271875 L87.348,40.9781875 L89.088,41.9931875 L89.088,52.2591875 C89.088,53.2741875 88.624,53.4481875 87.261,53.5351875 L87.261,54.4921875 L94.917,54.4921875 L94.917,53.5351875 L94.5672352,53.5087367 C93.4734711,53.4096007 93.09,53.1819148 93.09,52.2591875 L93.09,38.8321875 Z M91.031,37.0921875 C92.452,37.0921875 93.409,36.0191875 93.409,34.8011875 C93.409,33.5541875 92.452,32.5101875 91.031,32.5101875 C89.639,32.5101875 88.682,33.5541875 88.682,34.8011875 C88.682,36.0191875 89.639,37.0921875 91.031,37.0921875 Z M105.057333,32.3651875 L103.462333,37.1791875 L104.477333,37.1791875 L109.146333,32.5681875 L109.146333,32.3651875 L105.057333,32.3651875 Z M104.796333,53.7381875 C102.476333,53.7381875 101.461333,50.4321875 101.461333,46.1401875 C101.461333,42.3411875 102.447333,39.9051875 104.593333,39.9051875 C106.913333,39.9051875 107.899333,43.1821875 107.899333,47.4741875 C107.899333,51.2731875 106.942333,53.7381875 104.796333,53.7381875 Z M104.651333,54.7821875 C108.972333,54.7821875 112.191333,51.4181875 112.191333,46.4881875 C112.191333,41.9061875 109.175333,38.8321875 104.738333,38.8321875 C100.417333,38.8321875 97.1983333,42.2251875 97.1983333,47.1551875 C97.1983333,51.7661875 100.214333,54.7821875 104.651333,54.7821875 Z M125.956667,52.2591875 C125.956667,53.2741875 125.521667,53.4481875 124.187667,53.5351875 L124.187667,54.4921875 L131.785667,54.4921875 L131.785667,53.5351875 L131.443114,53.5087367 C130.371138,53.4096007 129.987667,53.1819148 129.987667,52.2591875 L129.987667,43.5591875 C129.987667,40.3981875 128.566667,38.8321875 125.840667,38.8321875 C123.375667,38.8321875 121.722667,40.2241875 120.475667,41.6741875 L120.591667,38.8321875 L119.924667,38.8321875 L114.733667,40.4271875 L114.733667,40.9781875 L116.473667,41.9931875 L116.473667,52.2591875 C116.473667,53.2741875 116.009667,53.4481875 114.646667,53.5351875 L114.646667,54.4921875 L122.244667,54.4921875 L122.244667,53.5351875 L121.902789,53.5087367 C120.835171,53.4096007 120.475667,53.1819148 120.475667,52.2591875 L120.475667,42.4571875 C121.403667,41.8191875 122.505667,41.2681875 123.723667,41.2681875 C125.318667,41.2681875 125.956667,42.1091875 125.956667,43.7911875 L125.956667,52.2591875 Z M148.905333,53.6801875 C147.136333,53.6801875 146.266333,52.5491875 146.266333,50.3451875 L146.266333,42.2831875 C146.933333,41.6741875 147.861333,41.2681875 148.818333,41.2681875 C151.544333,41.2681875 152.849333,43.7331875 152.849333,47.3001875 C152.849333,50.8671875 151.370333,53.6801875 148.905333,53.6801875 Z M142.235333,58.4071875 C142.235333,59.4221875 141.771333,59.5961875 140.437333,59.6831875 L140.437333,60.6401875 L148.644333,60.6401875 L148.644333,59.6831875 L148.061761,59.6325942 C146.697515,59.4982911 146.266333,59.2950337 146.266333,58.3201875 L146.266333,53.9701875 C146.904333,54.5211875 147.977333,54.7821875 149.166333,54.7821875 C153.487333,54.7821875 156.909333,51.5631875 156.909333,45.8791875 C156.909333,41.4131875 154.676333,38.8321875 151.138333,38.8321875 C148.818333,38.8321875 147.223333,40.1081875 146.266333,41.5581875 L146.382333,38.8321875 L145.686333,38.8321875 L140.495333,40.4271875 L140.495333,40.9781875 L142.235333,41.9931875 L142.235333,58.4071875 Z M166.991667,38.8321875 C163.018667,38.8321875 159.828667,42.2541875 159.828667,47.2131875 C159.828667,51.6791875 162.641667,54.7821875 166.846667,54.7821875 C170.181667,54.7821875 172.298667,52.8101875 173.052667,49.9391875 L172.588667,49.6781875 C171.544667,51.1861875 170.239667,52.0271875 168.267667,52.0271875 C165.425667,52.0271875 163.337667,49.6201875 163.453667,45.5601875 L172.907667,45.5601875 L172.907667,44.8931875 C172.907667,41.4131875 170.877667,38.8321875 166.991667,38.8321875 Z M166.701667,39.9051875 C168.586667,39.9051875 169.311667,41.7611875 169.311667,44.4871875 L163.511667,44.4871875 C163.743667,41.8191875 164.787667,39.9051875 166.701667,39.9051875 Z M181.163,44.0231875 C182.513391,42.6727962 183.815431,42.4828435 185.400222,42.4600191 L186.412,42.4571875 L186.412,39.3251875 C186.18,39.0351875 185.745,38.8321875 185.136,38.8321875 C183.425,38.8321875 182.555,39.9631875 181.163,43.1241875 L181.279,38.8321875 L180.612,38.8321875 L175.421,40.4271875 L175.421,40.9781875 L177.161,41.9931875 L177.161,52.2591875 C177.161,53.2741875 176.697,53.4481875 175.334,53.5351875 L175.334,54.4921875 L183.628,54.4921875 L183.628,53.5351875 L183.217958,53.4993259 C181.727549,53.3558515 181.163,53.1210675 181.163,52.0271875 L181.163,44.0231875 Z M194.145333,54.7821875 C197.712333,54.7821875 200.032333,52.9841875 200.032333,49.8811875 C200.032333,47.0391875 198.205333,45.8501875 195.044333,44.7481875 C192.811333,43.9361875 191.912333,43.2981875 191.912333,41.9641875 C191.912333,40.7171875 192.782333,39.8471875 194.261333,39.8471875 C196.320333,39.8471875 197.538333,41.5291875 198.002333,43.6171875 L198.988333,43.6171875 L198.988333,40.1081875 C197.770333,39.3251875 196.146333,38.8321875 194.261333,38.8321875 C191.071333,38.8321875 188.867333,40.5431875 188.867333,43.4431875 C188.867333,46.0584602 190.367131,47.2830112 193.287399,48.3332055 L193.565333,48.4311875 C195.856333,49.2431875 196.929333,49.8521875 196.929333,51.4181875 C196.929333,53.0131875 195.740333,53.7671875 194.174333,53.7671875 C191.941333,53.7671875 190.462333,51.8821875 189.824333,49.3591875 L188.751333,49.3591875 L188.925333,53.3321875 C190.114333,54.2021875 191.941333,54.7821875 194.145333,54.7821875 Z M210.549667,53.7381875 C208.229667,53.7381875 207.214667,50.4321875 207.214667,46.1401875 C207.214667,42.3411875 208.200667,39.9051875 210.346667,39.9051875 C212.666667,39.9051875 213.652667,43.1821875 213.652667,47.4741875 C213.652667,51.2731875 212.695667,53.7381875 210.549667,53.7381875 Z M210.404667,54.7821875 C214.725667,54.7821875 217.944667,51.4181875 217.944667,46.4881875 C217.944667,41.9061875 214.928667,38.8321875 210.491667,38.8321875 C206.170667,38.8321875 202.951667,42.2251875 202.951667,47.1551875 C202.951667,51.7661875 205.967667,54.7821875 210.404667,54.7821875 Z M231.71,52.2591875 C231.71,53.2741875 231.275,53.4481875 229.941,53.5351875 L229.941,54.4921875 L237.539,54.4921875 L237.539,53.5351875 L237.196447,53.5087367 C236.124471,53.4096007 235.741,53.1819148 235.741,52.2591875 L235.741,43.5591875 C235.741,40.3981875 234.32,38.8321875 231.594,38.8321875 C229.129,38.8321875 227.476,40.2241875 226.229,41.6741875 L226.345,38.8321875 L225.678,38.8321875 L220.487,40.4271875 L220.487,40.9781875 L222.227,41.9931875 L222.227,52.2591875 C222.227,53.2741875 221.763,53.4481875 220.4,53.5351875 L220.4,54.4921875 L227.998,54.4921875 L227.998,53.5351875 L227.656122,53.5087367 C226.588504,53.4096007 226.229,53.1819148 226.229,52.2591875 L226.229,42.4571875 C227.157,41.8191875 228.259,41.2681875 229.477,41.2681875 C231.072,41.2681875 231.71,42.1091875 231.71,43.7911875 L231.71,52.2591875 Z M245.852333,52.4621875 C244.315333,52.4621875 243.619333,51.3891875 243.619333,49.8811875 C243.619333,48.2571875 244.373333,47.5901875 245.591333,47.1261875 L248.085333,46.1111875 L248.085333,51.5341875 C247.273333,52.1431875 246.693333,52.4621875 245.852333,52.4621875 Z M252.087333,43.5881875 C252.087333,40.1951875 250.057333,38.8321875 246.345333,38.8321875 C243.126333,38.8321875 240.632333,40.0791875 240.632333,42.4861875 C240.632333,43.4431875 241.125333,44.0521875 241.908333,44.3131875 L244.315333,43.9941875 C244.170333,43.3561875 244.083333,42.7761875 244.083333,42.1961875 C244.083333,40.8041875 244.634333,39.7601875 246.026333,39.7601875 C247.534333,39.7601875 248.085333,40.9491875 248.085333,42.6021875 L248.085333,45.0671875 L243.706333,46.6621875 L243.290455,46.8222263 C241.306817,47.6113113 239.733333,48.6500907 239.733333,50.9831875 C239.733333,53.3031875 241.299333,54.7241875 243.648333,54.7241875 C245.736333,54.7241875 247.244333,53.4481875 248.172333,52.2301875 C248.462333,53.8251875 249.506333,54.7821875 251.072333,54.7821875 C252.435333,54.7821875 253.537333,54.2311875 254.378333,53.2451875 L254.204333,52.6071875 C253.885333,52.7521875 253.479333,52.8971875 253.044333,52.8971875 C252.290333,52.8971875 252.087333,52.2591875 252.087333,51.2731875 L252.087333,43.5881875 Z M261.850667,31.7851875 L261.850667,52.2591875 C261.850667,53.2741875 262.314667,53.4481875 263.648667,53.5351875 L263.648667,54.4921875 L256.021667,54.4921875 L256.021667,53.5351875 L256.36422,53.5087367 C257.436196,53.4096007 257.819667,53.1819148 257.819667,52.2591875 L257.819667,34.6851875 L256.079667,33.7861875 L256.079667,33.1771875 L261.212667,31.7851875 L261.850667,31.7851875 Z" id="Mivisiónpersonal" fill="#000000"></path>
            </g>
        </g>
    </g>
</svg>