<?xml version="1.0" encoding="UTF-8"?>
<svg width="318px" height="208px" viewBox="0 0 318 208" version="1.1" xmlns="http://www.w3.org/2000/svg" xmlns:xlink="http://www.w3.org/1999/xlink">
    <!-- Generator: Sketch 59.1 (86144) - https://sketch.com -->
    <title>Group 4</title>
    <desc>Created with Sketch.</desc>
    <g id="Page-1" stroke="none" stroke-width="1" fill="none" fill-rule="evenodd">
        <g id="Desktop-HD-Copy-2" transform="translate(-96.000000, -778.000000)" fill-rule="nonzero">
            <g id="Group-4" transform="translate(96.150391, 778.507812)">
                <path d="M0,29.3017578 L13.4472656,0 L25.3173828,0 L20.3369141,29.21875 L20.3369141,45.2392578 L0,45.2392578 L0,29.3017578 Z M27.3095703,29.3017578 L40.7568359,0 L52.6269531,0 L47.6464844,29.21875 L47.6464844,45.2392578 L27.3095703,45.2392578 L27.3095703,29.3017578 Z" id="“" fill-opacity="0.393602491" fill="#CCCCCC"></path>
                <path d="M29.4186094,48.7821875 C33.4496094,48.7821875 36.7846094,46.6941875 36.7846094,42.6341875 C36.7846094,39.1584314 34.6591906,37.6244159 31.107226,36.2849585 L30.5496094,36.0801875 C27.4466094,34.9491875 26.3446094,34.1081875 26.3446094,32.0781875 C26.3446094,30.2511875 27.6206094,29.0041875 29.6506094,29.0041875 C32.4056094,29.0041875 34.0586094,30.8021875 34.6096094,33.8761875 L35.6826094,33.8761875 L35.6826094,29.5551875 C34.2616094,28.5111875 32.0866094,27.8441875 29.6506094,27.8441875 C25.5906094,27.8441875 22.8936094,30.3091875 22.8936094,33.8471875 C22.8936094,37.0842145 24.8657788,38.6604673 27.9755226,39.8278385 L28.5196094,40.0241875 C31.9996094,41.3001875 33.2466094,42.1991875 33.2466094,44.3451875 C33.2466094,46.3461875 31.7676094,47.6221875 29.4186094,47.6221875 C26.4896094,47.6221875 24.6336094,45.3601875 23.9376094,41.9091875 L22.7196094,41.9091875 L22.9806094,46.8681875 C24.2856094,47.9411875 26.6636094,48.7821875 29.4186094,48.7821875 Z M47.4469427,47.7381875 C45.1269427,47.7381875 44.1119427,44.4321875 44.1119427,40.1401875 C44.1119427,36.3411875 45.0979427,33.9051875 47.2439427,33.9051875 C49.5639427,33.9051875 50.5499427,37.1821875 50.5499427,41.4741875 C50.5499427,45.2731875 49.5929427,47.7381875 47.4469427,47.7381875 Z M47.3019427,48.7821875 C51.6229427,48.7821875 54.8419427,45.4181875 54.8419427,40.4881875 C54.8419427,35.9061875 51.8259427,32.8321875 47.3889427,32.8321875 C43.0679427,32.8321875 39.8489427,36.2251875 39.8489427,41.1551875 C39.8489427,45.7661875 42.8649427,48.7821875 47.3019427,48.7821875 Z M65.707276,44.4611875 L62.227276,35.8771875 C62.111276,35.5291875 62.053276,35.2971875 62.053276,35.0651875 C62.053276,34.3981875 62.546276,34.2531875 64.025276,34.0791875 L64.025276,33.1221875 L56.137276,33.1221875 L56.137276,34.0791875 C57.050776,34.3329375 57.2981823,34.5200781 57.52061,34.9708809 L63.851276,49.0431875 L63.358276,50.2901875 C62.749276,51.8851875 61.792276,52.3201875 60.226276,52.3201875 C59.385276,52.3201875 58.863276,52.2041875 58.254276,52.0591875 L58.254276,53.5381875 C58.544276,54.3791875 59.501276,54.8721875 60.487276,54.8721875 C62.372276,54.8721875 63.358276,53.5961875 64.315276,51.2471875 L70.695276,35.1811875 C70.956276,34.5721875 71.159276,34.3691875 72.174276,34.0791875 L72.174276,33.1221875 L67.186276,33.1221875 L67.186276,34.0791875 L67.589226,34.1285886 C68.7784484,34.2855412 69.158276,34.4617113 69.158276,35.0651875 C69.158276,35.2971875 69.100276,35.5291875 68.955276,35.8771875 L65.707276,44.4611875 Z M91.3819427,27.8441875 C85.6399427,27.8441875 81.1449427,32.0781875 81.1449427,38.8061875 C81.1449427,44.8091875 85.0599427,48.7821875 91.3819427,48.7821875 C94.1079427,48.7821875 96.3699427,48.1441875 98.0809427,47.0421875 L98.5159427,41.5901875 L97.3559427,41.5901875 C96.3409427,45.8241875 94.4849427,47.5351875 91.7589427,47.5351875 C87.7859427,47.5351875 85.6399427,43.3881875 85.6399427,37.9941875 C85.6399427,33.0641875 87.4959427,29.0621875 91.4979427,29.0621875 C94.3109427,29.0621875 96.0219427,30.8601875 96.7179427,34.2241875 L97.8199427,34.2241875 L97.7909427,29.5551875 C96.1379427,28.4821875 93.9629427,27.8441875 91.3819427,27.8441875 Z M106.887276,25.7851875 L106.249276,25.7851875 L101.116276,27.1771875 L101.116276,27.7861875 L102.856276,28.6851875 L102.856276,46.2591875 C102.856276,47.2741875 102.392276,47.4481875 101.058276,47.5351875 L101.058276,48.4921875 L108.685276,48.4921875 L108.685276,47.5351875 L108.342723,47.5087367 C107.270747,47.4096007 106.887276,47.1819148 106.887276,46.2591875 L106.887276,25.7851875 Z M117.114609,46.4621875 C115.577609,46.4621875 114.881609,45.3891875 114.881609,43.8811875 C114.881609,42.2571875 115.635609,41.5901875 116.853609,41.1261875 L119.347609,40.1111875 L119.347609,45.5341875 C118.535609,46.1431875 117.955609,46.4621875 117.114609,46.4621875 Z M123.349609,37.5881875 C123.349609,34.1951875 121.319609,32.8321875 117.607609,32.8321875 C114.388609,32.8321875 111.894609,34.0791875 111.894609,36.4861875 C111.894609,37.4431875 112.387609,38.0521875 113.170609,38.3131875 L115.577609,37.9941875 C115.432609,37.3561875 115.345609,36.7761875 115.345609,36.1961875 C115.345609,34.8041875 115.896609,33.7601875 117.288609,33.7601875 C118.796609,33.7601875 119.347609,34.9491875 119.347609,36.6021875 L119.347609,39.0671875 L114.968609,40.6621875 C112.793609,41.4741875 110.995609,42.4891875 110.995609,44.9831875 C110.995609,47.3031875 112.561609,48.7241875 114.910609,48.7241875 C116.998609,48.7241875 118.506609,47.4481875 119.434609,46.2301875 C119.724609,47.8251875 120.768609,48.7821875 122.334609,48.7821875 C123.697609,48.7821875 124.799609,48.2311875 125.640609,47.2451875 L125.466609,46.6071875 C125.147609,46.7521875 124.741609,46.8971875 124.306609,46.8971875 C123.552609,46.8971875 123.349609,46.2591875 123.349609,45.2731875 L123.349609,37.5881875 Z M133.170943,38.0231875 C134.521334,36.6727962 135.823374,36.4828435 137.408165,36.4600191 L138.419943,36.4571875 L138.419943,33.3251875 C138.187943,33.0351875 137.752943,32.8321875 137.143943,32.8321875 C135.432943,32.8321875 134.562943,33.9631875 133.170943,37.1241875 L133.286943,32.8321875 L132.619943,32.8321875 L127.428943,34.4271875 L127.428943,34.9781875 L129.168943,35.9931875 L129.168943,46.2591875 C129.168943,47.2741875 128.704943,47.4481875 127.341943,47.5351875 L127.341943,48.4921875 L135.635943,48.4921875 L135.635943,47.5351875 L135.2259,47.4993259 C133.735492,47.3558515 133.170943,47.1210675 133.170943,46.0271875 L133.170943,38.0231875 Z M146.501276,46.4621875 C144.964276,46.4621875 144.268276,45.3891875 144.268276,43.8811875 C144.268276,42.2571875 145.022276,41.5901875 146.240276,41.1261875 L148.734276,40.1111875 L148.734276,45.5341875 C147.922276,46.1431875 147.342276,46.4621875 146.501276,46.4621875 Z M152.736276,37.5881875 C152.736276,34.1951875 150.706276,32.8321875 146.994276,32.8321875 C143.775276,32.8321875 141.281276,34.0791875 141.281276,36.4861875 C141.281276,37.4431875 141.774276,38.0521875 142.557276,38.3131875 L144.964276,37.9941875 C144.819276,37.3561875 144.732276,36.7761875 144.732276,36.1961875 C144.732276,34.8041875 145.283276,33.7601875 146.675276,33.7601875 C148.183276,33.7601875 148.734276,34.9491875 148.734276,36.6021875 L148.734276,39.0671875 L144.355276,40.6621875 L143.939397,40.8222263 C141.95576,41.6113113 140.382276,42.6500907 140.382276,44.9831875 C140.382276,47.3031875 141.948276,48.7241875 144.297276,48.7241875 C146.385276,48.7241875 147.893276,47.4481875 148.821276,46.2301875 C149.111276,47.8251875 150.155276,48.7821875 151.721276,48.7821875 C153.084276,48.7821875 154.186276,48.2311875 155.027276,47.2451875 L154.853276,46.6071875 C154.534276,46.7521875 154.128276,46.8971875 153.693276,46.8971875 C152.939276,46.8971875 152.736276,46.2591875 152.736276,45.2731875 L152.736276,37.5881875 Z M177.134943,45.0701875 C177.308943,45.5051875 177.395943,45.8821875 177.395943,46.2011875 C177.395943,47.1291875 176.670943,47.4191875 174.959943,47.4771875 L174.959943,48.4921875 L183.833943,48.4921875 L183.833943,47.4771875 L183.530298,47.4263881 C182.893698,47.3039608 182.399409,47.0827875 182.122943,46.4041875 L174.669943,27.9891875 L170.145943,27.9891875 L171.044943,30.1641875 L164.722943,46.4041875 C164.403943,47.1871875 163.823943,47.3611875 163.011943,47.4771875 L163.011943,48.4921875 L168.985943,48.4921875 L168.985943,47.4771875 C167.216943,47.4191875 166.491943,47.1001875 166.491943,46.1721875 C166.491943,45.9063542 166.552359,45.6002431 166.673193,45.2538542 L167.999943,41.7931875 L175.800943,41.7931875 L177.134943,45.0701875 Z M171.827943,31.8171875 L175.307943,40.5461875 L168.463943,40.5461875 L171.827943,31.8171875 Z M191.567276,25.7851875 L190.929276,25.7851875 L185.796276,27.1771875 L185.796276,27.7861875 L187.536276,28.6851875 L187.536276,46.2591875 C187.536276,47.2741875 187.072276,47.4481875 185.738276,47.5351875 L185.738276,48.4921875 L193.365276,48.4921875 L193.365276,47.5351875 L193.022723,47.5087367 C191.950747,47.4096007 191.567276,47.1819148 191.567276,46.2591875 L191.567276,25.7851875 Z M202.838609,32.8321875 C198.865609,32.8321875 195.675609,36.2541875 195.675609,41.2131875 C195.675609,45.6791875 198.488609,48.7821875 202.693609,48.7821875 C206.028609,48.7821875 208.145609,46.8101875 208.899609,43.9391875 L208.435609,43.6781875 C207.391609,45.1861875 206.086609,46.0271875 204.114609,46.0271875 C201.272609,46.0271875 199.184609,43.6201875 199.300609,39.5601875 L208.754609,39.5601875 L208.754609,38.8931875 C208.754609,35.4131875 206.724609,32.8321875 202.838609,32.8321875 Z M202.548609,33.9051875 C204.433609,33.9051875 205.158609,35.7611875 205.158609,38.4871875 L199.358609,38.4871875 C199.590609,35.8191875 200.634609,33.9051875 202.548609,33.9051875 Z M217.908943,43.0111875 C221.533943,43.0111875 224.114943,41.1261875 224.114943,38.0521875 C224.114943,36.6021875 223.302943,35.3841875 222.287943,34.7171875 L224.317943,34.8041875 L225.506943,34.8041875 L225.506943,33.1221875 L220.605943,33.2381875 L220.162127,33.1180115 C219.556143,32.9621075 218.883343,32.8321875 218.024943,32.8321875 C214.399943,32.8321875 211.702943,34.8041875 211.702943,38.1391875 C211.702943,40.1981875 212.833943,41.5321875 214.370943,42.2861875 L214.0232,42.5117282 C212.810205,43.3234446 211.673943,44.3779701 211.673943,45.9401875 C211.673943,47.1291875 212.340943,48.1441875 213.471943,48.5791875 C212.079943,49.0141875 210.745943,49.8261875 210.745943,51.3051875 C210.745943,53.6541875 213.384943,54.9301875 217.618943,54.9301875 C222.432943,54.9301875 226.086943,52.9001875 226.086943,49.2461875 C226.086943,46.6941875 224.346943,45.2731875 220.982943,45.2731875 L215.008943,45.2731875 C214.370943,45.2731875 213.993943,44.8961875 213.993943,44.2871875 C213.993943,43.6781875 214.428943,43.0691875 214.979943,42.5471875 C215.878943,42.8661875 216.893943,43.0111875 217.908943,43.0111875 Z M220.924943,48.9561875 C222.345943,48.9561875 223.215943,49.4201875 223.215943,50.6961875 C223.215943,52.8711875 220.663943,53.8281875 217.821943,53.8281875 C215.095943,53.8281875 213.384943,52.6101875 213.384943,50.6671875 C213.384943,49.9711875 213.558943,49.3911875 213.935943,48.9561875 L220.924943,48.9561875 Z M218.082943,42.0541875 C216.371943,42.0541875 215.559943,40.0531875 215.559943,37.6751875 C215.559943,35.4131875 216.226943,33.8181875 217.850943,33.8181875 C219.532943,33.8181875 220.315943,35.8191875 220.315943,38.1391875 C220.315943,40.4591875 219.677943,42.0541875 218.082943,42.0541875 Z M233.675276,38.0231875 C235.025667,36.6727962 236.327707,36.4828435 237.912499,36.4600191 L238.924276,36.4571875 L238.924276,33.3251875 C238.692276,33.0351875 238.257276,32.8321875 237.648276,32.8321875 C235.937276,32.8321875 235.067276,33.9631875 233.675276,37.1241875 L233.791276,32.8321875 L233.124276,32.8321875 L227.933276,34.4271875 L227.933276,34.9781875 L229.673276,35.9931875 L229.673276,46.2591875 C229.673276,47.2741875 229.209276,47.4481875 227.846276,47.5351875 L227.846276,48.4921875 L236.140276,48.4921875 L236.140276,47.5351875 L235.730234,47.4993259 C234.239825,47.3558515 233.675276,47.1210675 233.675276,46.0271875 L233.675276,38.0231875 Z M245.178609,26.3651875 L243.583609,31.1791875 L244.598609,31.1791875 L249.267609,26.5681875 L249.267609,26.3651875 L245.178609,26.3651875 Z M246.802609,32.8321875 L246.164609,32.8321875 L241.060609,34.4271875 L241.060609,34.9781875 L242.800609,35.9931875 L242.800609,46.2591875 C242.800609,47.2741875 242.336609,47.4481875 240.973609,47.5351875 L240.973609,48.4921875 L248.629609,48.4921875 L248.629609,47.5351875 L248.279845,47.5087367 C247.18608,47.4096007 246.802609,47.1819148 246.802609,46.2591875 L246.802609,32.8321875 Z M257.058943,46.4621875 C255.521943,46.4621875 254.825943,45.3891875 254.825943,43.8811875 C254.825943,42.2571875 255.579943,41.5901875 256.797943,41.1261875 L259.291943,40.1111875 L259.291943,45.5341875 C258.479943,46.1431875 257.899943,46.4621875 257.058943,46.4621875 Z M263.293943,37.5881875 C263.293943,34.1951875 261.263943,32.8321875 257.551943,32.8321875 C254.332943,32.8321875 251.838943,34.0791875 251.838943,36.4861875 C251.838943,37.4431875 252.331943,38.0521875 253.114943,38.3131875 L255.521943,37.9941875 C255.376943,37.3561875 255.289943,36.7761875 255.289943,36.1961875 C255.289943,34.8041875 255.840943,33.7601875 257.232943,33.7601875 C258.740943,33.7601875 259.291943,34.9491875 259.291943,36.6021875 L259.291943,39.0671875 L254.912943,40.6621875 L254.497064,40.8222263 C252.513427,41.6113113 250.939943,42.6500907 250.939943,44.9831875 C250.939943,47.3031875 252.505943,48.7241875 254.854943,48.7241875 C256.942943,48.7241875 258.450943,47.4481875 259.378943,46.2301875 C259.668943,47.8251875 260.712943,48.7821875 262.278943,48.7821875 C263.641943,48.7821875 264.743943,48.2311875 265.584943,47.2451875 L265.410943,46.6071875 C265.091943,46.7521875 264.685943,46.8971875 264.250943,46.8971875 C263.496943,46.8971875 263.293943,46.2591875 263.293943,45.2731875 L263.293943,37.5881875 Z M267.721276,46.2591875 C267.721276,47.7091875 268.852276,48.7821875 270.244276,48.7821875 C271.636276,48.7821875 272.738276,47.7091875 272.738276,46.2591875 C272.738276,44.8381875 271.636276,43.7361875 270.244276,43.7361875 C268.852276,43.7361875 267.721276,44.8381875 267.721276,46.2591875 Z M28.7516094,79.1261875 L28.7516094,69.1501875 L28.7562229,68.8399782 C28.7998852,67.5309116 29.1816094,67.3651875 31.0716094,67.1491875 L31.0716094,66.1341875 L22.1976094,66.1341875 L22.1976094,67.1491875 L22.5932574,67.1968451 C24.2662301,67.4119461 24.5176094,67.6651875 24.5176094,69.1501875 L24.5176094,79.4161875 C24.5176094,84.4041875 27.5916094,86.7821875 32.7246094,86.7821875 C37.0166094,86.7821875 40.4386094,84.4621875 40.4386094,79.4741875 L40.4386094,69.1791875 C40.4386094,67.6131875 40.7286094,67.3811875 42.7586094,67.1491875 L42.7586094,66.1341875 L36.1176094,66.1341875 L36.1176094,67.1491875 C38.4956094,67.3521875 38.8726094,67.6131875 38.8726094,69.1791875 L38.8726094,78.9521875 C38.8726094,83.1281875 36.6686094,84.8101875 33.4786094,84.8101875 C30.2886094,84.8101875 28.7516094,82.6641875 28.7516094,79.1261875 Z M51.6809427,83.4761875 L51.6809427,69.1501875 L51.6855563,68.8399782 C51.7292186,67.5309116 52.1109427,67.3651875 54.0009427,67.1491875 L54.0009427,66.1341875 L45.0979427,66.1341875 L45.0979427,67.1491875 L45.4935907,67.1968451 C47.1046014,67.4039794 47.397372,67.6464812 47.4168488,68.9901958 L47.4179427,83.4761875 C47.4179427,85.0711875 47.1279427,85.2451875 45.0979427,85.4771875 L45.0979427,86.4921875 L54.0009427,86.4921875 L54.0009427,85.4771875 L53.6052947,85.4295299 C51.932322,85.2144289 51.6809427,84.9611875 51.6809427,83.4761875 Z M71.6716094,67.2941875 C76.8046094,67.2941875 79.0956094,71.3251875 79.0956094,76.5161875 C79.0956094,82.1131875 76.5436094,85.3321875 72.8896094,85.3321875 L72.3676094,85.3321875 C70.8306094,85.3321875 70.1056094,84.9841875 70.1056094,83.2731875 L70.1056094,67.2941875 L71.6716094,67.2941875 Z M72.9766094,86.4921875 C79.1536094,86.4921875 83.5906094,82.6061875 83.5906094,75.9071875 C83.5906094,70.5421875 80.1106094,66.1341875 72.4256094,66.1341875 L63.5226094,66.1341875 L63.5226094,67.1491875 L63.9182574,67.1968451 C65.5912301,67.4119461 65.8426094,67.6651875 65.8426094,69.1501875 L65.8426094,83.4761875 L65.8379958,83.7863968 C65.7943335,85.0954634 65.4126094,85.2611875 63.5226094,85.4771875 L63.5226094,86.4921875 L72.9766094,86.4921875 Z M93.7019427,70.8321875 C89.7289427,70.8321875 86.5389427,74.2541875 86.5389427,79.2131875 C86.5389427,83.6791875 89.3519427,86.7821875 93.5569427,86.7821875 C96.8919427,86.7821875 99.0089427,84.8101875 99.7629427,81.9391875 L99.2989427,81.6781875 C98.2549427,83.1861875 96.9499427,84.0271875 94.9779427,84.0271875 C92.1359427,84.0271875 90.0479427,81.6201875 90.1639427,77.5601875 L99.6179427,77.5601875 L99.6179427,76.8931875 C99.6179427,73.4131875 97.5879427,70.8321875 93.7019427,70.8321875 Z M93.4119427,71.9051875 C95.2969427,71.9051875 96.0219427,73.7611875 96.0219427,76.4871875 L90.2219427,76.4871875 C90.4539427,73.8191875 91.4979427,71.9051875 93.4119427,71.9051875 Z M108.018276,86.7821875 C111.585276,86.7821875 113.905276,84.9841875 113.905276,81.8811875 C113.905276,79.0391875 112.078276,77.8501875 108.917276,76.7481875 C106.684276,75.9361875 105.785276,75.2981875 105.785276,73.9641875 C105.785276,72.7171875 106.655276,71.8471875 108.134276,71.8471875 C110.193276,71.8471875 111.411276,73.5291875 111.875276,75.6171875 L112.861276,75.6171875 L112.861276,72.1081875 C111.643276,71.3251875 110.019276,70.8321875 108.134276,70.8321875 C104.944276,70.8321875 102.740276,72.5431875 102.740276,75.4431875 C102.740276,78.0584602 104.240074,79.2830112 107.160342,80.3332055 L107.438276,80.4311875 C109.729276,81.2431875 110.802276,81.8521875 110.802276,83.4181875 C110.802276,85.0131875 109.613276,85.7671875 108.047276,85.7671875 C105.814276,85.7671875 104.335276,83.8821875 103.697276,81.3591875 L102.624276,81.3591875 L102.798276,85.3321875 C103.987276,86.2021875 105.814276,86.7821875 108.018276,86.7821875 Z M122.479609,70.8321875 L121.841609,70.8321875 L116.737609,72.4271875 L116.737609,72.9781875 L118.477609,73.9931875 L118.477609,84.2591875 C118.477609,85.2741875 118.013609,85.4481875 116.650609,85.5351875 L116.650609,86.4921875 L124.306609,86.4921875 L124.306609,85.5351875 L123.956845,85.5087367 C122.86308,85.4096007 122.479609,85.1819148 122.479609,84.2591875 L122.479609,70.8321875 Z M120.420609,69.0921875 C121.841609,69.0921875 122.798609,68.0191875 122.798609,66.8011875 C122.798609,65.5541875 121.841609,64.5101875 120.420609,64.5101875 C119.028609,64.5101875 118.071609,65.5541875 118.071609,66.8011875 C118.071609,68.0191875 119.028609,69.0921875 120.420609,69.0921875 Z M133.083943,81.0111875 C136.708943,81.0111875 139.289943,79.1261875 139.289943,76.0521875 C139.289943,74.6021875 138.477943,73.3841875 137.462943,72.7171875 L139.492943,72.8041875 L140.681943,72.8041875 L140.681943,71.1221875 L135.780943,71.2381875 L135.337127,71.1180115 C134.731143,70.9621075 134.058343,70.8321875 133.199943,70.8321875 C129.574943,70.8321875 126.877943,72.8041875 126.877943,76.1391875 C126.877943,78.1981875 128.008943,79.5321875 129.545943,80.2861875 L129.1982,80.5117282 C127.985205,81.3234446 126.848943,82.3779701 126.848943,83.9401875 C126.848943,85.1291875 127.515943,86.1441875 128.646943,86.5791875 C127.254943,87.0141875 125.920943,87.8261875 125.920943,89.3051875 C125.920943,91.6541875 128.559943,92.9301875 132.793943,92.9301875 C137.607943,92.9301875 141.261943,90.9001875 141.261943,87.2461875 C141.261943,84.6941875 139.521943,83.2731875 136.157943,83.2731875 L130.183943,83.2731875 C129.545943,83.2731875 129.168943,82.8961875 129.168943,82.2871875 C129.168943,81.6781875 129.603943,81.0691875 130.154943,80.5471875 C131.053943,80.8661875 132.068943,81.0111875 133.083943,81.0111875 Z M136.099943,86.9561875 C137.520943,86.9561875 138.390943,87.4201875 138.390943,88.6961875 C138.390943,90.8711875 135.838943,91.8281875 132.996943,91.8281875 C130.270943,91.8281875 128.559943,90.6101875 128.559943,88.6671875 C128.559943,87.9711875 128.733943,87.3911875 129.110943,86.9561875 L136.099943,86.9561875 Z M133.257943,80.0541875 C131.546943,80.0541875 130.734943,78.0531875 130.734943,75.6751875 C130.734943,73.4131875 131.401943,71.8181875 133.025943,71.8181875 C134.707943,71.8181875 135.490943,73.8191875 135.490943,76.1391875 C135.490943,78.4591875 134.852943,80.0541875 133.257943,80.0541875 Z M154.331276,84.2591875 C154.331276,85.2741875 153.896276,85.4481875 152.562276,85.5351875 L152.562276,86.4921875 L160.160276,86.4921875 L160.160276,85.5351875 L159.817723,85.5087367 C158.745747,85.4096007 158.362276,85.1819148 158.362276,84.2591875 L158.362276,75.5591875 C158.362276,72.3981875 156.941276,70.8321875 154.215276,70.8321875 C151.750276,70.8321875 150.097276,72.2241875 148.850276,73.6741875 L148.966276,70.8321875 L148.299276,70.8321875 L143.108276,72.4271875 L143.108276,72.9781875 L144.848276,73.9931875 L144.848276,84.2591875 C144.848276,85.2741875 144.384276,85.4481875 143.021276,85.5351875 L143.021276,86.4921875 L150.619276,86.4921875 L150.619276,85.5351875 L150.277399,85.5087367 C149.20978,85.4096007 148.850276,85.1819148 148.850276,84.2591875 L148.850276,74.4571875 C149.778276,73.8191875 150.880276,73.2681875 152.098276,73.2681875 C153.693276,73.2681875 154.331276,74.1091875 154.331276,75.7911875 L154.331276,84.2591875 Z M169.517609,70.8321875 C165.544609,70.8321875 162.354609,74.2541875 162.354609,79.2131875 C162.354609,83.6791875 165.167609,86.7821875 169.372609,86.7821875 C172.707609,86.7821875 174.824609,84.8101875 175.578609,81.9391875 L175.114609,81.6781875 C174.070609,83.1861875 172.765609,84.0271875 170.793609,84.0271875 C167.951609,84.0271875 165.863609,81.6201875 165.979609,77.5601875 L175.433609,77.5601875 L175.433609,76.8931875 C175.433609,73.4131875 173.403609,70.8321875 169.517609,70.8321875 Z M169.227609,71.9051875 C171.112609,71.9051875 171.837609,73.7611875 171.837609,76.4871875 L166.037609,76.4871875 C166.269609,73.8191875 167.313609,71.9051875 169.227609,71.9051875 Z M183.688943,76.0231875 C185.039334,74.6727962 186.341374,74.4828435 187.926165,74.4600191 L188.937943,74.4571875 L188.937943,71.3251875 C188.705943,71.0351875 188.270943,70.8321875 187.661943,70.8321875 C185.950943,70.8321875 185.080943,71.9631875 183.688943,75.1241875 L183.804943,70.8321875 L183.137943,70.8321875 L177.946943,72.4271875 L177.946943,72.9781875 L179.686943,73.9931875 L179.686943,84.2591875 C179.686943,85.2741875 179.222943,85.4481875 177.859943,85.5351875 L177.859943,86.4921875 L186.153943,86.4921875 L186.153943,85.5351875 L185.7439,85.4993259 C184.253492,85.3558515 183.688943,85.1210675 183.688943,84.0271875 L183.688943,76.0231875 Z M193.046276,86.4051875 C192.872276,87.9421875 191.741276,88.6961875 190.001276,88.9861875 L190.001276,89.9141875 C193.278276,89.7401875 195.047276,87.8841875 195.047276,85.1291875 C195.047276,83.3601875 194.090276,82.1131875 192.524276,82.1131875 C191.219276,82.1131875 190.204276,82.9541875 190.204276,84.3171875 C190.204276,85.5351875 190.958276,86.2021875 191.944276,86.4051875 L193.046276,86.4051875 Z M210.745943,79.1261875 L210.745943,69.1501875 L210.750556,68.8399782 C210.794219,67.5309116 211.175943,67.3651875 213.065943,67.1491875 L213.065943,66.1341875 L204.191943,66.1341875 L204.191943,67.1491875 L204.587591,67.1968451 C206.198601,67.4039794 206.491372,67.6464812 206.510849,68.9901958 L206.511943,79.4161875 C206.511943,84.4041875 209.585943,86.7821875 214.718943,86.7821875 C219.010943,86.7821875 222.432943,84.4621875 222.432943,79.4741875 L222.432943,69.1791875 C222.432943,67.6131875 222.722943,67.3811875 224.752943,67.1491875 L224.752943,66.1341875 L218.111943,66.1341875 L218.111943,67.1491875 C220.413233,67.3456391 220.840538,67.5964091 220.865711,69.0316711 L220.866943,78.9521875 C220.866943,83.1281875 218.662943,84.8101875 215.472943,84.8101875 C212.282943,84.8101875 210.745943,82.6641875 210.745943,79.1261875 Z M235.328276,77.7341875 L239.011276,83.2441875 C239.417276,83.8531875 239.620276,84.2301875 239.620276,84.5781875 C239.620276,85.3321875 238.837276,85.4771875 237.358276,85.4771875 L237.358276,86.4921875 L246.725276,86.4921875 L246.725276,85.4771875 C245.710276,85.4191875 245.043276,85.0711875 244.434276,84.1431875 L238.344276,75.0081875 L243.390276,68.3671875 C243.970276,67.5551875 244.608276,67.2071875 245.739276,67.1491875 L245.739276,66.1341875 L239.388276,66.1341875 L239.388276,67.1491875 C240.722276,67.1491875 241.505276,67.4101875 241.505276,68.0481875 C241.505276,68.3671875 241.331276,68.8021875 240.954276,69.3241875 L237.590276,73.8191875 L234.690276,69.4401875 C234.226276,68.7731875 233.994276,68.3091875 233.994276,67.9321875 C233.994276,67.2651875 234.661276,67.1491875 236.053276,67.1491875 L236.053276,66.1341875 L226.889276,66.1341875 L226.889276,67.1491875 C227.817276,67.2071875 228.542276,67.5261875 229.093276,68.3671875 L234.574276,76.6031875 L228.658276,84.2591875 C228.020276,85.1291875 227.469276,85.4191875 226.338276,85.4771875 L226.338276,86.4921875 L233.008276,86.4921875 L233.008276,85.4771875 C231.529276,85.4481875 230.630276,85.1581875 230.630276,84.4911875 C230.630276,84.2011875 230.775276,83.8241875 231.152276,83.3021875 L235.328276,77.7341875 Z M30.5496094,105.323188 C33.6236094,105.323188 35.1606094,107.208188 35.1606094,109.818188 C35.1606094,112.834187 33.6526094,114.574187 30.6076094,114.574187 L29.2156094,114.574187 L29.2156094,105.323188 L30.5496094,105.323188 Z M29.2156094,115.792187 L30.7236094,115.792187 L34.7256094,121.650188 C35.5956094,122.955187 36.3206094,123.883187 37.1616094,124.492188 L42.6716094,124.492188 L42.6716094,123.477188 C41.1636094,123.448188 40.4386094,122.868187 39.1336094,121.099187 L34.7546094,115.154188 C36.9296094,114.603187 39.4816094,112.950187 39.4816094,109.789188 C39.4816094,106.396187 36.6976094,104.134188 31.8836094,104.134188 L22.6326094,104.134188 L22.6326094,105.149188 L23.0282574,105.196845 C24.7012301,105.411946 24.9526094,105.665188 24.9526094,107.150188 L24.9526094,121.476188 L24.9479958,121.786397 C24.9043335,123.095463 24.5226094,123.261188 22.6326094,123.477188 L22.6326094,124.492188 L31.5356094,124.492188 L31.5356094,123.477188 L31.1399613,123.42953 C29.4669887,123.214429 29.2156094,122.961187 29.2156094,121.476188 L29.2156094,115.792187 Z M51.0719427,108.832188 C47.0989427,108.832188 43.9089427,112.254187 43.9089427,117.213188 C43.9089427,121.679188 46.7219427,124.782187 50.9269427,124.782187 C54.2619427,124.782187 56.3789427,122.810187 57.1329427,119.939188 L56.6689427,119.678188 C55.6249427,121.186187 54.3199427,122.027187 52.3479427,122.027187 C49.5059427,122.027187 47.4179427,119.620188 47.5339427,115.560187 L56.9879427,115.560187 L56.9879427,114.893187 C56.9879427,111.413188 54.9579427,108.832188 51.0719427,108.832188 Z M50.7819427,109.905188 C52.6669427,109.905188 53.3919427,111.761188 53.3919427,114.487188 L47.5919427,114.487188 C47.8239427,111.819187 48.8679427,109.905188 50.7819427,109.905188 Z M65.388276,124.782187 C68.955276,124.782187 71.275276,122.984187 71.275276,119.881188 C71.275276,117.039188 69.448276,115.850187 66.287276,114.748187 C64.054276,113.936187 63.155276,113.298188 63.155276,111.964187 C63.155276,110.717188 64.025276,109.847188 65.504276,109.847188 C67.563276,109.847188 68.781276,111.529188 69.245276,113.617188 L70.231276,113.617188 L70.231276,110.108187 C69.013276,109.325187 67.389276,108.832188 65.504276,108.832188 C62.314276,108.832188 60.110276,110.543188 60.110276,113.443188 C60.110276,116.05846 61.610074,117.283011 64.5303418,118.333205 L64.808276,118.431187 C67.099276,119.243187 68.172276,119.852188 68.172276,121.418188 C68.172276,123.013187 66.983276,123.767187 65.417276,123.767187 C63.184276,123.767187 61.705276,121.882187 61.067276,119.359187 L59.994276,119.359187 L60.168276,123.332188 C61.357276,124.202188 63.184276,124.782187 65.388276,124.782187 Z M81.2996094,108.832188 C77.3266094,108.832188 74.1366094,112.254187 74.1366094,117.213188 C74.1366094,121.679188 76.9496094,124.782187 81.1546094,124.782187 C84.4896094,124.782187 86.6066094,122.810187 87.3606094,119.939188 L86.8966094,119.678188 C85.8526094,121.186187 84.5476094,122.027187 82.5756094,122.027187 C79.7336094,122.027187 77.6456094,119.620188 77.7616094,115.560187 L87.2156094,115.560187 L87.2156094,114.893187 C87.2156094,111.413188 85.1856094,108.832188 81.2996094,108.832188 Z M81.0096094,109.905188 C82.8946094,109.905188 83.6196094,111.761188 83.6196094,114.487188 L77.8196094,114.487188 C78.0516094,111.819187 79.0956094,109.905188 81.0096094,109.905188 Z M95.9639427,122.462188 C94.4269427,122.462188 93.7309427,121.389188 93.7309427,119.881188 C93.7309427,118.257187 94.4849427,117.590187 95.7029427,117.126188 L98.1969427,116.111188 L98.1969427,121.534188 C97.3849427,122.143187 96.8049427,122.462188 95.9639427,122.462188 Z M102.198943,113.588188 C102.198943,110.195187 100.168943,108.832188 96.4569427,108.832188 C93.2379427,108.832188 90.7439427,110.079187 90.7439427,112.486188 C90.7439427,113.443188 91.2369427,114.052187 92.0199427,114.313188 L94.4269427,113.994187 C94.2819427,113.356188 94.1949427,112.776187 94.1949427,112.196187 C94.1949427,110.804188 94.7459427,109.760188 96.1379427,109.760188 C97.6459427,109.760188 98.1969427,110.949187 98.1969427,112.602188 L98.1969427,115.067188 L93.8179427,116.662187 L93.4020642,116.822226 C91.4184266,117.611311 89.8449427,118.650091 89.8449427,120.983187 C89.8449427,123.303188 91.4109427,124.724187 93.7599427,124.724187 C95.8479427,124.724187 97.3559427,123.448188 98.2839427,122.230188 C98.5739427,123.825187 99.6179427,124.782187 101.183943,124.782187 C102.546943,124.782187 103.648943,124.231188 104.489943,123.245188 L104.315943,122.607188 C103.996943,122.752187 103.590943,122.897187 103.155943,122.897187 C102.401943,122.897187 102.198943,122.259188 102.198943,121.273187 L102.198943,113.588188 Z M112.020276,114.023187 C113.370667,112.672796 114.672707,112.482843 116.257499,112.460019 L117.269276,112.457188 L117.269276,109.325187 C117.037276,109.035188 116.602276,108.832188 115.993276,108.832188 C114.282276,108.832188 113.412276,109.963188 112.020276,113.124188 L112.136276,108.832188 L111.469276,108.832188 L106.278276,110.427187 L106.278276,110.978187 L108.018276,111.993187 L108.018276,122.259188 C108.018276,123.274188 107.554276,123.448188 106.191276,123.535188 L106.191276,124.492188 L114.485276,124.492188 L114.485276,123.535188 L114.075234,123.499326 C112.584825,123.355852 112.020276,123.121067 112.020276,122.027187 L112.020276,114.023187 Z M122.711609,115.647187 C122.711609,112.428188 123.987609,109.934188 126.191609,109.934188 C127.815609,109.934188 128.308609,111.210187 128.308609,112.747187 C128.308609,113.269188 128.250609,113.704187 128.192609,114.168188 L130.396609,114.168188 C131.005609,113.878187 131.498609,113.153188 131.498609,112.225187 C131.498609,109.992188 129.526609,108.832188 126.684609,108.832188 C122.102609,108.832188 119.173609,112.486188 119.173609,117.329187 C119.173609,121.882187 122.044609,124.782187 125.930609,124.782187 C128.888609,124.782187 131.034609,123.216188 131.933609,120.055187 L131.440609,119.765188 C130.483609,121.186187 129.207609,121.911187 127.380609,121.911187 C124.451609,121.911187 122.711609,119.446187 122.711609,115.647187 Z M135.664943,122.259188 C135.664943,123.274188 135.200943,123.448188 133.866943,123.535188 L133.866943,124.492188 L141.464943,124.492188 L141.464943,123.535188 L141.123065,123.508737 C140.055447,123.409601 139.695943,123.181915 139.695943,122.259188 L139.695943,112.457188 C140.623943,111.819187 141.725943,111.268187 142.914943,111.268187 C144.509943,111.268187 145.176943,112.109187 145.176943,113.791187 L145.176943,122.259188 C145.176943,123.274188 144.741943,123.448188 143.407943,123.535188 L143.407943,124.492188 L151.005943,124.492188 L151.005943,123.535188 L150.66339,123.508737 C149.591414,123.409601 149.207943,123.181915 149.207943,122.259188 L149.207943,113.588188 C149.207943,110.427187 147.757943,108.832188 145.031943,108.832188 C142.595943,108.832188 140.913943,110.224187 139.695943,111.674188 L139.695943,101.785188 L139.057943,101.785188 L133.924943,103.177187 L133.924943,103.786187 L135.664943,104.685187 L135.664943,122.259188 Z M156.506276,124.405188 C156.332276,125.942188 155.201276,126.696187 153.461276,126.986188 L153.461276,127.914188 C156.738276,127.740188 158.507276,125.884188 158.507276,123.129187 C158.507276,121.360187 157.550276,120.113187 155.984276,120.113187 C154.679276,120.113187 153.664276,120.954187 153.664276,122.317188 C153.664276,123.535188 154.418276,124.202188 155.404276,124.405188 L156.506276,124.405188 Z M181.600943,122.781187 C180.817943,123.390188 179.860943,123.564188 178.729943,123.564188 C174.582943,123.564188 172.668943,119.069187 172.668943,114.023187 C172.668943,109.064188 174.495943,105.033187 178.700943,105.033187 C181.600943,105.033187 183.282943,106.860187 183.978943,110.224187 L185.080943,110.224187 L185.051943,105.526187 C183.369943,104.424188 181.165943,103.844187 178.584943,103.844187 C172.697943,103.844187 168.173943,108.078188 168.173943,114.806187 C168.173943,120.432188 171.769943,124.782187 178.207943,124.782187 C181.194943,124.782187 183.717943,123.999188 185.602943,122.781187 L185.602943,117.967188 C185.602943,116.372187 185.892943,116.169188 187.922943,115.937187 L187.922943,114.951188 L179.280943,114.951188 L179.280943,115.937187 L179.669225,115.983622 C181.373583,116.202441 181.600943,116.478521 181.600943,117.967188 L181.600943,122.781187 Z M195.830276,114.023187 C197.180667,112.672796 198.482707,112.482843 200.067499,112.460019 L201.079276,112.457188 L201.079276,109.325187 C200.847276,109.035188 200.412276,108.832188 199.803276,108.832188 C198.092276,108.832188 197.222276,109.963188 195.830276,113.124188 L195.946276,108.832188 L195.279276,108.832188 L190.088276,110.427187 L190.088276,110.978187 L191.828276,111.993187 L191.828276,122.259188 C191.828276,123.274188 191.364276,123.448188 190.001276,123.535188 L190.001276,124.492188 L198.295276,124.492188 L198.295276,123.535188 L197.885234,123.499326 C196.394825,123.355852 195.830276,123.121067 195.830276,122.027187 L195.830276,114.023187 Z M209.160609,122.462188 C207.623609,122.462188 206.927609,121.389188 206.927609,119.881188 C206.927609,118.257187 207.681609,117.590187 208.899609,117.126188 L211.393609,116.111188 L211.393609,121.534188 C210.581609,122.143187 210.001609,122.462188 209.160609,122.462188 Z M215.395609,113.588188 C215.395609,110.195187 213.365609,108.832188 209.653609,108.832188 C206.434609,108.832188 203.940609,110.079187 203.940609,112.486188 C203.940609,113.443188 204.433609,114.052187 205.216609,114.313188 L207.623609,113.994187 C207.478609,113.356188 207.391609,112.776187 207.391609,112.196187 C207.391609,110.804188 207.942609,109.760188 209.334609,109.760188 C210.842609,109.760188 211.393609,110.949187 211.393609,112.602188 L211.393609,115.067188 L207.014609,116.662187 C204.839609,117.474187 203.041609,118.489187 203.041609,120.983187 C203.041609,123.303188 204.607609,124.724187 206.956609,124.724187 C209.044609,124.724187 210.552609,123.448188 211.480609,122.230188 C211.770609,123.825187 212.814609,124.782187 214.380609,124.782187 C215.743609,124.782187 216.845609,124.231188 217.686609,123.245188 L217.512609,122.607188 C217.193609,122.752187 216.787609,122.897187 216.352609,122.897187 C215.598609,122.897187 215.395609,122.259188 215.395609,121.273187 L215.395609,113.588188 Z M227.478943,123.680187 C225.709943,123.680187 224.839943,122.549188 224.839943,120.345187 L224.839943,112.283187 C225.506943,111.674188 226.434943,111.268187 227.391943,111.268187 C230.117943,111.268187 231.422943,113.733187 231.422943,117.300187 C231.422943,120.867188 229.943943,123.680187 227.478943,123.680187 Z M220.808943,128.407187 C220.808943,129.422188 220.344943,129.596188 219.010943,129.683188 L219.010943,130.640188 L227.217943,130.640188 L227.217943,129.683188 L226.63537,129.632594 C225.271125,129.498291 224.839943,129.295034 224.839943,128.320187 L224.839943,123.970187 C225.477943,124.521187 226.550943,124.782187 227.739943,124.782187 C232.060943,124.782187 235.482943,121.563188 235.482943,115.879187 C235.482943,111.413188 233.249943,108.832188 229.711943,108.832188 C227.391943,108.832188 225.796943,110.108187 224.839943,111.558188 L224.955943,108.832188 L224.259943,108.832188 L219.068943,110.427187 L219.068943,110.978187 L220.808943,111.993187 L220.808943,128.407187 Z M239.678276,122.259188 C239.678276,123.274188 239.214276,123.448188 237.880276,123.535188 L237.880276,124.492188 L245.478276,124.492188 L245.478276,123.535188 L245.136399,123.508737 C244.06878,123.409601 243.709276,123.181915 243.709276,122.259188 L243.709276,112.457188 C244.637276,111.819187 245.739276,111.268187 246.928276,111.268187 C248.523276,111.268187 249.190276,112.109187 249.190276,113.791187 L249.190276,122.259188 C249.190276,123.274188 248.755276,123.448188 247.421276,123.535188 L247.421276,124.492188 L255.019276,124.492188 L255.019276,123.535188 L254.676723,123.508737 C253.604747,123.409601 253.221276,123.181915 253.221276,122.259188 L253.221276,113.588188 C253.221276,110.427187 251.771276,108.832188 249.045276,108.832188 C246.609276,108.832188 244.927276,110.224187 243.709276,111.674188 L243.709276,101.785188 L243.071276,101.785188 L237.938276,103.177187 L237.938276,103.786187 L239.678276,104.685187 L239.678276,122.259188 Z M262.955609,108.832188 L262.317609,108.832188 L257.213609,110.427187 L257.213609,110.978187 L258.953609,111.993187 L258.953609,122.259188 C258.953609,123.274188 258.489609,123.448188 257.126609,123.535188 L257.126609,124.492188 L264.782609,124.492188 L264.782609,123.535188 L264.432845,123.508737 C263.33908,123.409601 262.955609,123.181915 262.955609,122.259188 L262.955609,108.832188 Z M260.896609,107.092188 C262.317609,107.092188 263.274609,106.019188 263.274609,104.801187 C263.274609,103.554188 262.317609,102.510188 260.896609,102.510188 C259.504609,102.510188 258.547609,103.554188 258.547609,104.801187 C258.547609,106.019188 259.504609,107.092188 260.896609,107.092188 Z M270.601943,115.647187 C270.601943,112.428188 271.877943,109.934188 274.081943,109.934188 C275.705943,109.934188 276.198943,111.210187 276.198943,112.747187 C276.198943,113.269188 276.140943,113.704187 276.082943,114.168188 L278.286943,114.168188 C278.895943,113.878187 279.388943,113.153188 279.388943,112.225187 C279.388943,109.992188 277.416943,108.832188 274.574943,108.832188 C269.992943,108.832188 267.063943,112.486188 267.063943,117.329187 C267.063943,121.882187 269.934943,124.782187 273.820943,124.782187 C276.778943,124.782187 278.924943,123.216188 279.823943,120.055187 L279.330943,119.765188 C278.373943,121.186187 277.097943,121.911187 275.270943,121.911187 C272.341943,121.911187 270.601943,119.446187 270.601943,115.647187 Z M30.7816094,143.294188 C35.9146094,143.294188 38.2056094,147.325187 38.2056094,152.516188 C38.2056094,158.113187 35.6536094,161.332188 31.9996094,161.332188 L31.4776094,161.332188 C29.9406094,161.332188 29.2156094,160.984187 29.2156094,159.273187 L29.2156094,143.294188 L30.7816094,143.294188 Z M32.0866094,162.492188 C38.2636094,162.492188 42.7006094,158.606188 42.7006094,151.907187 C42.7006094,146.542187 39.2206094,142.134188 31.5356094,142.134188 L22.6326094,142.134188 L22.6326094,143.149188 L23.0282574,143.196845 C24.7012301,143.411946 24.9526094,143.665187 24.9526094,145.150188 L24.9526094,159.476188 L24.9479958,159.786397 C24.9043335,161.095463 24.5226094,161.261188 22.6326094,161.477188 L22.6326094,162.492188 L32.0866094,162.492188 Z M52.8119427,146.832188 C48.8389427,146.832188 45.6489427,150.254187 45.6489427,155.213188 C45.6489427,159.679188 48.4619427,162.782187 52.6669427,162.782187 C56.0019427,162.782187 58.1189427,160.810187 58.8729427,157.939188 L58.4089427,157.678188 C57.3649427,159.186187 56.0599427,160.027187 54.0879427,160.027187 C51.2459427,160.027187 49.1579427,157.620187 49.2739427,153.560187 L58.7279427,153.560187 L58.7279427,152.893188 C58.7279427,149.413188 56.6979427,146.832188 52.8119427,146.832188 Z M52.5219427,147.905188 C54.4069427,147.905188 55.1319427,149.761188 55.1319427,152.487188 L49.3319427,152.487188 C49.5639427,149.819187 50.6079427,147.905188 52.5219427,147.905188 Z M67.128276,162.782187 C70.695276,162.782187 73.015276,160.984187 73.015276,157.881188 C73.015276,155.039188 71.188276,153.850187 68.027276,152.748187 C65.794276,151.936187 64.895276,151.298188 64.895276,149.964187 C64.895276,148.717188 65.765276,147.847188 67.244276,147.847188 C69.303276,147.847188 70.521276,149.529188 70.985276,151.617188 L71.971276,151.617188 L71.971276,148.108187 C70.753276,147.325187 69.129276,146.832188 67.244276,146.832188 C64.054276,146.832188 61.850276,148.543187 61.850276,151.443188 C61.850276,154.05846 63.350074,155.283011 66.2703418,156.333205 L66.548276,156.431187 C68.839276,157.243187 69.912276,157.852188 69.912276,159.418187 C69.912276,161.013187 68.723276,161.767187 67.157276,161.767187 C64.924276,161.767187 63.445276,159.882187 62.807276,157.359187 L61.734276,157.359187 L61.908276,161.332188 C63.097276,162.202188 64.924276,162.782187 67.128276,162.782187 Z M81.5896094,146.832188 L80.9516094,146.832188 L75.8476094,148.427187 L75.8476094,148.978187 L77.5876094,149.993187 L77.5876094,160.259188 C77.5876094,161.274187 77.1236094,161.448188 75.7606094,161.535188 L75.7606094,162.492188 L83.4166094,162.492188 L83.4166094,161.535188 L83.0668445,161.508737 C81.9730804,161.409601 81.5896094,161.181915 81.5896094,160.259188 L81.5896094,146.832188 Z M79.5306094,145.092188 C80.9516094,145.092188 81.9086094,144.019188 81.9086094,142.801187 C81.9086094,141.554188 80.9516094,140.510188 79.5306094,140.510188 C78.1386094,140.510188 77.1816094,141.554188 77.1816094,142.801187 C77.1816094,144.019188 78.1386094,145.092188 79.5306094,145.092188 Z M92.1939427,157.011188 C95.8189427,157.011188 98.3999427,155.126188 98.3999427,152.052187 C98.3999427,150.602188 97.5879427,149.384188 96.5729427,148.717188 L98.6029427,148.804188 L99.7919427,148.804188 L99.7919427,147.122187 L94.8909427,147.238187 L94.4471267,147.118012 C93.8411427,146.962108 93.1683427,146.832188 92.3099427,146.832188 C88.6849427,146.832188 85.9879427,148.804188 85.9879427,152.139187 C85.9879427,154.198188 87.1189427,155.532187 88.6559427,156.286187 L88.3082001,156.511728 C87.0952055,157.323445 85.9589427,158.37797 85.9589427,159.940187 C85.9589427,161.129187 86.6259427,162.144188 87.7569427,162.579187 C86.3649427,163.014187 85.0309427,163.826188 85.0309427,165.305187 C85.0309427,167.654188 87.6699427,168.930187 91.9039427,168.930187 C96.7179427,168.930187 100.371943,166.900188 100.371943,163.246188 C100.371943,160.694187 98.6319427,159.273187 95.2679427,159.273187 L89.2939427,159.273187 C88.6559427,159.273187 88.2789427,158.896187 88.2789427,158.287188 C88.2789427,157.678188 88.7139427,157.069187 89.2649427,156.547188 C90.1639427,156.866188 91.1789427,157.011188 92.1939427,157.011188 Z M95.2099427,162.956187 C96.6309427,162.956187 97.5009427,163.420187 97.5009427,164.696187 C97.5009427,166.871188 94.9489427,167.828188 92.1069427,167.828188 C89.3809427,167.828188 87.6699427,166.610187 87.6699427,164.667187 C87.6699427,163.971188 87.8439427,163.391188 88.2209427,162.956187 L95.2099427,162.956187 Z M92.3679427,156.054188 C90.6569427,156.054188 89.8449427,154.053188 89.8449427,151.675187 C89.8449427,149.413188 90.5119427,147.818188 92.1359427,147.818188 C93.8179427,147.818188 94.6009427,149.819187 94.6009427,152.139187 C94.6009427,154.459187 93.9629427,156.054188 92.3679427,156.054188 Z M113.441276,160.259188 C113.441276,161.274187 113.006276,161.448188 111.672276,161.535188 L111.672276,162.492188 L119.270276,162.492188 L119.270276,161.535188 L118.927723,161.508737 C117.855747,161.409601 117.472276,161.181915 117.472276,160.259188 L117.472276,151.559188 C117.472276,148.398187 116.051276,146.832188 113.325276,146.832188 C110.860276,146.832188 109.207276,148.224187 107.960276,149.674188 L108.076276,146.832188 L107.409276,146.832188 L102.218276,148.427187 L102.218276,148.978187 L103.958276,149.993187 L103.958276,160.259188 C103.958276,161.274187 103.494276,161.448188 102.131276,161.535188 L102.131276,162.492188 L109.729276,162.492188 L109.729276,161.535188 L109.387399,161.508737 C108.31978,161.409601 107.960276,161.181915 107.960276,160.259188 L107.960276,150.457188 C108.888276,149.819187 109.990276,149.268188 111.208276,149.268188 C112.803276,149.268188 113.441276,150.109187 113.441276,151.791187 L113.441276,160.259188 Z M128.627609,146.832188 C124.654609,146.832188 121.464609,150.254187 121.464609,155.213188 C121.464609,159.679188 124.277609,162.782187 128.482609,162.782187 C131.817609,162.782187 133.934609,160.810187 134.688609,157.939188 L134.224609,157.678188 C133.180609,159.186187 131.875609,160.027187 129.903609,160.027187 C127.061609,160.027187 124.973609,157.620187 125.089609,153.560187 L134.543609,153.560187 L134.543609,152.893188 C134.543609,149.413188 132.513609,146.832188 128.627609,146.832188 Z M128.337609,147.905188 C130.222609,147.905188 130.947609,149.761188 130.947609,152.487188 L125.147609,152.487188 C125.379609,149.819187 126.423609,147.905188 128.337609,147.905188 Z M142.798943,152.023187 C144.149334,150.672796 145.451374,150.482843 147.036165,150.460019 L148.047943,150.457188 L148.047943,147.325187 C147.815943,147.035188 147.380943,146.832188 146.771943,146.832188 C145.060943,146.832188 144.190943,147.963188 142.798943,151.124188 L142.914943,146.832188 L142.247943,146.832188 L137.056943,148.427187 L137.056943,148.978187 L138.796943,149.993187 L138.796943,160.259188 C138.796943,161.274187 138.332943,161.448188 136.969943,161.535188 L136.969943,162.492188 L145.263943,162.492188 L145.263943,161.535188 L144.8539,161.499326 C143.363492,161.355851 142.798943,161.121067 142.798943,160.027187 L142.798943,152.023187 Z M165.950609,158.461188 L162.470609,149.877187 C162.354609,149.529188 162.296609,149.297188 162.296609,149.065187 C162.296609,148.398187 162.789609,148.253187 164.268609,148.079187 L164.268609,147.122187 L156.380609,147.122187 L156.380609,148.079187 C157.294109,148.332937 157.541516,148.520078 157.763943,148.970881 L164.094609,163.043187 L163.601609,164.290188 C162.992609,165.885188 162.035609,166.320187 160.469609,166.320187 C159.628609,166.320187 159.106609,166.204187 158.497609,166.059188 L158.497609,167.538188 C158.787609,168.379187 159.744609,168.872187 160.730609,168.872187 C162.615609,168.872187 163.601609,167.596188 164.558609,165.247187 L170.938609,149.181187 C171.199609,148.572187 171.402609,148.369187 172.417609,148.079187 L172.417609,147.122187 L167.429609,147.122187 L167.429609,148.079187 L167.832559,148.128589 C169.021782,148.285541 169.401609,148.461711 169.401609,149.065187 C169.401609,149.297188 169.343609,149.529188 169.198609,149.877187 L165.950609,158.461188 Z M187.884276,152.893188 L191.132276,152.893188 C192.408276,152.893188 192.814276,153.734187 193.075276,155.590187 L194.090276,155.590187 L194.090276,148.891188 L193.075276,148.891188 C192.814276,150.747187 192.408276,151.588188 191.132276,151.588188 L187.884276,151.588188 L187.884276,143.294188 L191.538276,143.294188 C193.829276,143.294188 194.815276,144.309188 196.149276,147.528188 L196.961276,147.528188 L196.816276,142.134188 L181.301276,142.134188 L181.301276,143.149188 L181.696924,143.196845 C183.369897,143.411946 183.621276,143.665187 183.621276,145.150188 L183.621276,159.476188 C183.621276,161.071187 183.331276,161.245187 181.301276,161.477188 L181.301276,162.492188 L191.364276,162.492188 L191.364276,161.448188 L190.880742,161.412929 C188.57246,161.222191 187.884276,160.795687 187.884276,159.273187 L187.884276,152.893188 Z M206.028609,161.738187 C203.708609,161.738187 202.693609,158.432188 202.693609,154.140188 C202.693609,150.341187 203.679609,147.905188 205.825609,147.905188 C208.145609,147.905188 209.131609,151.182188 209.131609,155.474187 C209.131609,159.273187 208.174609,161.738187 206.028609,161.738187 Z M205.883609,162.782187 C210.204609,162.782187 213.423609,159.418187 213.423609,154.488187 C213.423609,149.906187 210.407609,146.832188 205.970609,146.832188 C201.649609,146.832188 198.430609,150.225187 198.430609,155.155188 C198.430609,159.766188 201.446609,162.782187 205.883609,162.782187 Z M221.388943,143.352188 L220.518943,143.352188 C219.271943,145.266188 217.560943,146.890188 215.559943,147.789188 L215.559943,148.456187 L217.357943,148.456187 L217.357943,158.287188 C217.357943,161.535188 219.097943,162.782187 221.475943,162.782187 C223.563943,162.782187 225.013943,161.738187 225.941943,160.288188 L225.593943,159.766188 C224.868943,160.317188 224.230943,160.578188 223.418943,160.578188 C222.055943,160.578188 221.388943,159.824187 221.388943,158.055187 L221.388943,148.456187 L225.158943,148.456187 L225.158943,147.122187 L221.388943,147.122187 L221.388943,143.352188 Z M235.502276,140.365188 L233.907276,145.179188 L234.922276,145.179188 L239.591276,140.568188 L239.591276,140.365188 L235.502276,140.365188 Z M235.241276,161.738187 C232.921276,161.738187 231.906276,158.432188 231.906276,154.140188 C231.906276,150.341187 232.892276,147.905188 235.038276,147.905188 C237.358276,147.905188 238.344276,151.182188 238.344276,155.474187 C238.344276,159.273187 237.387276,161.738187 235.241276,161.738187 Z M235.096276,162.782187 C239.417276,162.782187 242.636276,159.418187 242.636276,154.488187 C242.636276,149.906187 239.620276,146.832188 235.183276,146.832188 C230.862276,146.832188 227.643276,150.225187 227.643276,155.155188 C227.643276,159.766188 230.659276,162.782187 235.096276,162.782187 Z M251.703609,157.011188 C255.328609,157.011188 257.909609,155.126188 257.909609,152.052187 C257.909609,150.602188 257.097609,149.384188 256.082609,148.717188 L258.112609,148.804188 L259.301609,148.804188 L259.301609,147.122187 L254.400609,147.238187 L253.956793,147.118012 C253.350809,146.962108 252.678009,146.832188 251.819609,146.832188 C248.194609,146.832188 245.497609,148.804188 245.497609,152.139187 C245.497609,154.198188 246.628609,155.532187 248.165609,156.286187 C246.831609,157.127187 245.468609,158.229187 245.468609,159.940187 C245.468609,161.129187 246.135609,162.144188 247.266609,162.579187 C245.874609,163.014187 244.540609,163.826188 244.540609,165.305187 C244.540609,167.654188 247.179609,168.930187 251.413609,168.930187 C256.227609,168.930187 259.881609,166.900188 259.881609,163.246188 C259.881609,160.694187 258.141609,159.273187 254.777609,159.273187 L248.803609,159.273187 C248.165609,159.273187 247.788609,158.896187 247.788609,158.287188 C247.788609,157.678188 248.223609,157.069187 248.774609,156.547188 C249.673609,156.866188 250.688609,157.011188 251.703609,157.011188 Z M254.719609,162.956187 C256.140609,162.956187 257.010609,163.420187 257.010609,164.696187 C257.010609,166.871188 254.458609,167.828188 251.616609,167.828188 C248.890609,167.828188 247.179609,166.610187 247.179609,164.667187 C247.179609,163.971188 247.353609,163.391188 247.730609,162.956187 L254.719609,162.956187 Z M251.877609,156.054188 C250.166609,156.054188 249.354609,154.053188 249.354609,151.675187 C249.354609,149.413188 250.021609,147.818188 251.645609,147.818188 C253.327609,147.818188 254.110609,149.819187 254.110609,152.139187 C254.110609,154.459187 253.472609,156.054188 251.877609,156.054188 Z M267.469943,152.023187 C268.820334,150.672796 270.122374,150.482843 271.707165,150.460019 L272.718943,150.457188 L272.718943,147.325187 C272.486943,147.035188 272.051943,146.832188 271.442943,146.832188 C269.731943,146.832188 268.861943,147.963188 267.469943,151.124188 L267.585943,146.832188 L266.918943,146.832188 L261.727943,148.427187 L261.727943,148.978187 L263.467943,149.993187 L263.467943,160.259188 C263.467943,161.274187 263.003943,161.448188 261.640943,161.535188 L261.640943,162.492188 L269.934943,162.492188 L269.934943,161.535188 L269.5249,161.499326 C268.034492,161.355851 267.469943,161.121067 267.469943,160.027187 L267.469943,152.023187 Z M280.800276,160.462188 C279.263276,160.462188 278.567276,159.389187 278.567276,157.881188 C278.567276,156.257187 279.321276,155.590187 280.539276,155.126188 L283.033276,154.111188 L283.033276,159.534188 C282.221276,160.143188 281.641276,160.462188 280.800276,160.462188 Z M287.035276,151.588188 C287.035276,148.195187 285.005276,146.832188 281.293276,146.832188 C278.074276,146.832188 275.580276,148.079187 275.580276,150.486188 C275.580276,151.443188 276.073276,152.052187 276.856276,152.313188 L279.263276,151.994187 C279.118276,151.356188 279.031276,150.776187 279.031276,150.196187 C279.031276,148.804188 279.582276,147.760188 280.974276,147.760188 C282.482276,147.760188 283.033276,148.949187 283.033276,150.602188 L283.033276,153.067188 L278.654276,154.662188 L278.238397,154.822226 C276.25476,155.611311 274.681276,156.650091 274.681276,158.983187 C274.681276,161.303188 276.247276,162.724187 278.596276,162.724187 C280.684276,162.724187 282.192276,161.448188 283.120276,160.230188 C283.410276,161.825187 284.454276,162.782187 286.020276,162.782187 C287.383276,162.782187 288.485276,162.231188 289.326276,161.245187 L289.152276,160.607188 C288.833276,160.752187 288.427276,160.897187 287.992276,160.897187 C287.238276,160.897187 287.035276,160.259188 287.035276,159.273187 L287.035276,151.588188 Z M296.885609,148.456187 L300.452609,148.456187 L300.452609,147.122187 L296.885609,147.122187 L296.885609,143.352188 C296.885609,141.699187 297.407609,140.800187 298.451609,140.800187 C299.408609,140.800187 299.669609,141.641188 299.669609,142.714187 C299.669609,143.178188 299.611609,143.555187 299.553609,143.874188 L301.670609,143.874188 C302.279609,143.584187 302.656609,142.975187 302.656609,142.250188 C302.656609,140.684188 301.409609,139.785188 298.857609,139.785188 C295.406609,139.785188 292.854609,141.728187 292.854609,145.759188 L292.854609,146.977188 L290.737609,147.673188 L290.737609,148.456187 L292.854609,148.456187 L292.854609,160.259188 C292.854609,161.274187 292.390609,161.448188 291.056609,161.535188 L291.056609,162.492188 L299.321609,162.492188 L299.321609,161.535188 L298.912094,161.499326 C297.425613,161.355851 296.885609,161.121067 296.885609,160.027187 L296.885609,148.456187 Z M308.388943,160.462188 C306.851943,160.462188 306.155943,159.389187 306.155943,157.881188 C306.155943,156.257187 306.909943,155.590187 308.127943,155.126188 L310.621943,154.111188 L310.621943,159.534188 C309.809943,160.143188 309.229943,160.462188 308.388943,160.462188 Z M314.623943,151.588188 C314.623943,148.195187 312.593943,146.832188 308.881943,146.832188 C305.662943,146.832188 303.168943,148.079187 303.168943,150.486188 C303.168943,151.443188 303.661943,152.052187 304.444943,152.313188 L306.851943,151.994187 C306.706943,151.356188 306.619943,150.776187 306.619943,150.196187 C306.619943,148.804188 307.170943,147.760188 308.562943,147.760188 C310.070943,147.760188 310.621943,148.949187 310.621943,150.602188 L310.621943,153.067188 L306.242943,154.662188 L305.827064,154.822226 C303.843427,155.611311 302.269943,156.650091 302.269943,158.983187 C302.269943,161.303188 303.835943,162.724187 306.184943,162.724187 C308.272943,162.724187 309.780943,161.448188 310.708943,160.230188 C310.998943,161.825187 312.042943,162.782187 313.608943,162.782187 C314.971943,162.782187 316.073943,162.231188 316.914943,161.245187 L316.740943,160.607188 C316.421943,160.752187 316.015943,160.897187 315.580943,160.897187 C314.826943,160.897187 314.623943,160.259188 314.623943,159.273187 L314.623943,151.588188 Z M30.6946094,199.680187 C28.9256094,199.680187 28.0556094,198.549188 28.0556094,196.345188 L28.0556094,188.283187 C28.7226094,187.674188 29.6506094,187.268188 30.6076094,187.268188 C33.3336094,187.268188 34.6386094,189.733187 34.6386094,193.300187 C34.6386094,196.867188 33.1596094,199.680187 30.6946094,199.680187 Z M24.0246094,204.407187 C24.0246094,205.422188 23.5606094,205.596188 22.2266094,205.683188 L22.2266094,206.640188 L30.4336094,206.640188 L30.4336094,205.683188 L29.8510371,205.632594 C28.4867913,205.498291 28.0556094,205.295034 28.0556094,204.320187 L28.0556094,199.970188 C28.6936094,200.521187 29.7666094,200.782187 30.9556094,200.782187 C35.2766094,200.782187 38.6986094,197.563188 38.6986094,191.879187 C38.6986094,187.413188 36.4656094,184.832188 32.9276094,184.832188 C30.6076094,184.832188 29.0126094,186.108187 28.0556094,187.558188 L28.1716094,184.832188 L27.4756094,184.832188 L22.2846094,186.427187 L22.2846094,186.978187 L24.0246094,187.993187 L24.0246094,204.407187 Z M49.1869427,199.738187 C46.8669427,199.738187 45.8519427,196.432188 45.8519427,192.140188 C45.8519427,188.341187 46.8379427,185.905188 48.9839427,185.905188 C51.3039427,185.905188 52.2899427,189.182188 52.2899427,193.474187 C52.2899427,197.273187 51.3329427,199.738187 49.1869427,199.738187 Z M49.0419427,200.782187 C53.3629427,200.782187 56.5819427,197.418187 56.5819427,192.488187 C56.5819427,187.906187 53.5659427,184.832188 49.1289427,184.832188 C44.8079427,184.832188 41.5889427,188.225187 41.5889427,193.155188 C41.5889427,197.766188 44.6049427,200.782187 49.0419427,200.782187 Z M64.866276,190.023187 C66.2166673,188.672796 67.518707,188.482843 69.1034985,188.460019 L70.115276,188.457188 L70.115276,185.325187 C69.883276,185.035188 69.448276,184.832188 68.839276,184.832188 C67.128276,184.832188 66.258276,185.963188 64.866276,189.124188 L64.982276,184.832188 L64.315276,184.832188 L59.124276,186.427187 L59.124276,186.978187 L60.864276,187.993187 L60.864276,198.259188 C60.864276,199.274188 60.400276,199.448188 59.037276,199.535188 L59.037276,200.492188 L67.331276,200.492188 L67.331276,199.535188 L66.9212337,199.499326 C65.4308248,199.355852 64.866276,199.121067 64.866276,198.027187 L64.866276,190.023187 Z M85.0889427,198.462188 C83.5519427,198.462188 82.8559427,197.389187 82.8559427,195.881188 C82.8559427,194.257187 83.6099427,193.590187 84.8279427,193.126188 L87.3219427,192.111188 L87.3219427,197.534188 C86.5099427,198.143188 85.9299427,198.462188 85.0889427,198.462188 Z M91.3239427,189.588188 C91.3239427,186.195187 89.2939427,184.832188 85.5819427,184.832188 C82.3629427,184.832188 79.8689427,186.079187 79.8689427,188.486188 C79.8689427,189.443188 80.3619427,190.052187 81.1449427,190.313188 L83.5519427,189.994187 C83.4069427,189.356188 83.3199427,188.776187 83.3199427,188.196187 C83.3199427,186.804188 83.8709427,185.760188 85.2629427,185.760188 C86.7709427,185.760188 87.3219427,186.949187 87.3219427,188.602188 L87.3219427,191.067188 L82.9429427,192.662187 L82.5270642,192.822226 C80.5434266,193.611311 78.9699427,194.650091 78.9699427,196.983187 C78.9699427,199.303188 80.5359427,200.724187 82.8849427,200.724187 C84.9729427,200.724187 86.4809427,199.448188 87.4089427,198.230188 C87.6989427,199.825187 88.7429427,200.782187 90.3089427,200.782187 C91.6719427,200.782187 92.7739427,200.231188 93.6149427,199.245187 L93.4409427,198.607188 C93.1219427,198.752187 92.7159427,198.897187 92.2809427,198.897187 C91.5269427,198.897187 91.3239427,198.259188 91.3239427,197.273187 L91.3239427,189.588188 Z M110.454276,184.832188 L109.613276,184.832188 L108.511276,185.122187 L101.174276,185.122187 L101.174276,182.686187 C101.174276,180.192188 101.957276,178.800187 103.523276,178.800187 C104.857276,178.800187 105.263276,179.786187 105.263276,180.859187 C105.263276,181.294188 105.234276,181.642187 105.147276,181.990188 L107.554276,181.990188 C108.134276,181.671187 108.569276,181.120187 108.569276,180.366188 C108.569276,178.684188 106.858276,177.785188 103.987276,177.785188 C100.159276,177.785188 97.143276,179.873187 97.143276,184.281187 L97.143276,184.977188 L95.026276,185.673188 L95.026276,186.456187 L97.143276,186.456187 L97.143276,198.259188 C97.143276,199.274188 96.679276,199.448188 95.345276,199.535188 L95.345276,200.492188 L102.943276,200.492188 L102.943276,199.535188 L102.601399,199.508737 C101.53378,199.409601 101.174276,199.181915 101.174276,198.259188 L101.174276,186.456187 L106.423276,186.456187 L106.423276,198.259188 C106.423276,199.274188 105.988276,199.448188 104.654276,199.535188 L104.654276,200.492188 L112.252276,200.492188 L112.252276,199.535188 L111.909723,199.508737 C110.837747,199.409601 110.454276,199.181915 110.454276,198.259188 L110.454276,184.832188 Z M118.100609,191.647187 C118.100609,188.428188 119.376609,185.934188 121.580609,185.934188 C123.204609,185.934188 123.697609,187.210187 123.697609,188.747187 C123.697609,189.269188 123.639609,189.704187 123.581609,190.168187 L125.785609,190.168187 C126.394609,189.878187 126.887609,189.153188 126.887609,188.225187 C126.887609,185.992188 124.915609,184.832188 122.073609,184.832188 C117.491609,184.832188 114.562609,188.486188 114.562609,193.329187 C114.562609,197.882187 117.433609,200.782187 121.319609,200.782187 C124.277609,200.782187 126.423609,199.216187 127.322609,196.055187 L126.829609,195.765188 C125.872609,197.186187 124.596609,197.911187 122.769609,197.911187 C119.840609,197.911187 118.100609,195.446187 118.100609,191.647187 Z M135.258943,184.832188 L134.620943,184.832188 L129.516943,186.427187 L129.516943,186.978187 L131.256943,187.993187 L131.256943,198.259188 C131.256943,199.274188 130.792943,199.448188 129.429943,199.535188 L129.429943,200.492188 L137.085943,200.492188 L137.085943,199.535188 L136.736178,199.508737 C135.642414,199.409601 135.258943,199.181915 135.258943,198.259188 L135.258943,184.832188 Z M133.199943,183.092188 C134.620943,183.092188 135.577943,182.019188 135.577943,180.801187 C135.577943,179.554188 134.620943,178.510188 133.199943,178.510188 C131.807943,178.510188 130.850943,179.554188 130.850943,180.801187 C130.850943,182.019188 131.807943,183.092188 133.199943,183.092188 Z M147.226276,178.365188 L145.631276,183.179188 L146.646276,183.179188 L151.315276,178.568188 L151.315276,178.365188 L147.226276,178.365188 Z M146.965276,199.738187 C144.645276,199.738187 143.630276,196.432188 143.630276,192.140188 C143.630276,188.341187 144.616276,185.905188 146.762276,185.905188 C149.082276,185.905188 150.068276,189.182188 150.068276,193.474187 C150.068276,197.273187 149.111276,199.738187 146.965276,199.738187 Z M146.820276,200.782187 C151.141276,200.782187 154.360276,197.418187 154.360276,192.488187 C154.360276,187.906187 151.344276,184.832188 146.907276,184.832188 C142.586276,184.832188 139.367276,188.225187 139.367276,193.155188 C139.367276,197.766188 142.383276,200.782187 146.820276,200.782187 Z M168.125609,198.259188 C168.125609,199.274188 167.690609,199.448188 166.356609,199.535188 L166.356609,200.492188 L173.954609,200.492188 L173.954609,199.535188 L173.612056,199.508737 C172.54008,199.409601 172.156609,199.181915 172.156609,198.259188 L172.156609,189.559188 C172.156609,186.398187 170.735609,184.832188 168.009609,184.832188 C165.544609,184.832188 163.891609,186.224187 162.644609,187.674188 L162.760609,184.832188 L162.093609,184.832188 L156.902609,186.427187 L156.902609,186.978187 L158.642609,187.993187 L158.642609,198.259188 C158.642609,199.274188 158.178609,199.448188 156.815609,199.535188 L156.815609,200.492188 L164.413609,200.492188 L164.413609,199.535188 L164.071732,199.508737 C163.004114,199.409601 162.644609,199.181915 162.644609,198.259188 L162.644609,188.457188 C163.572609,187.819187 164.674609,187.268188 165.892609,187.268188 C167.487609,187.268188 168.125609,188.109187 168.125609,189.791187 L168.125609,198.259188 Z M176.438943,198.259188 C176.438943,196.838188 177.569943,195.736188 178.961943,195.736188 C180.353943,195.736188 181.455943,196.838188 181.455943,198.259188 C181.455943,199.709187 180.353943,200.782187 178.961943,200.782187 C177.569943,200.782187 176.438943,199.709187 176.438943,198.259188 Z" id="SoyClaraAlegría.UIDesigner,UXResearch,GraphicDesigneryFotógrafaporafción." fill="#000000"></path>
            </g>
        </g>
    </g>
</svg>